<svg width="24" height="24" viewBox="0 0 24 24" fill="none" class="social-icon" xmlns="http://www.w3.org/2000/svg">
              <g clip-path="url(#clip0_14729_224906)">
                <path d="M10.36 0.702271L8.15074 0.126243C7.67887 0.000522339 7.18686 -0.030964 6.70282 0.0335838C6.21878 0.0981316 5.75221 0.257448 5.32978 0.502424C4.90735 0.747401 4.53735 1.07323 4.24092 1.4613C3.94449 1.84936 3.72746 2.29204 3.60222 2.76403L3.05078 4.84686C4.86928 2.58351 7.48411 1.10082 10.36 0.702271Z" fill="#091E42"></path>
                <path d="M0.669214 13.8135L0.12831 15.8542C-0.124536 16.8067 0.0113177 17.8206 0.505989 18.6729C1.00066 19.5253 1.81363 20.1462 2.7661 20.3992L4.87352 20.9611C2.62326 19.1919 1.12214 16.6399 0.669214 13.8135Z" fill="#091E42"></path>
                <path d="M21.2388 3.59942L18.875 2.9707C20.0694 3.8895 21.0695 5.03637 21.8172 6.34476C22.5648 7.65316 23.0452 9.09701 23.2303 10.5925L23.8801 8.13388C24.1297 7.18238 23.9918 6.17075 23.4966 5.32075C23.0015 4.47075 22.1896 3.85174 21.2388 3.59942Z" fill="#091E42"></path>
                <path d="M13.5898 23.2728L15.8553 23.884C16.8078 24.1368 17.8217 24.001 18.6741 23.5063C19.5264 23.0116 20.1474 22.1987 20.4003 21.2462L21.0396 18.8438C19.2372 21.2444 16.5598 22.8362 13.5898 23.2728Z" fill="#091E42"></path>
                <path d="M12.0044 1.59375C9.94592 1.59306 7.93346 2.20283 6.22155 3.34596C4.50965 4.48909 3.17519 6.11422 2.38696 8.01582C1.59873 9.91741 1.39213 12.0101 1.7933 14.0291C2.19446 16.0481 3.18537 17.9028 4.64069 19.3586C6.09602 20.8144 7.95039 21.806 9.96927 22.2078C11.9882 22.6097 14.0809 22.4038 15.9827 21.6162C17.8846 20.8286 19.5102 19.4947 20.6539 17.7832C21.7976 16.0716 22.408 14.0594 22.408 12.0009C22.408 9.24135 21.3121 6.59479 19.3611 4.64317C17.4101 2.69156 14.7639 1.59468 12.0044 1.59375ZM6.11066 6.78503C6.22194 6.20804 6.50179 5.677 6.91484 5.25904C7.32789 4.84108 7.85559 4.55498 8.43122 4.43689C9.00686 4.31881 9.60458 4.37405 10.1488 4.59563C10.6931 4.8172 11.1594 5.19517 11.4889 5.68175C11.8183 6.16832 11.9961 6.74166 11.9998 7.32927C12.0034 7.91688 11.8328 8.49238 11.5094 8.98301C11.186 9.47365 10.7244 9.85738 10.1829 10.0857C9.6415 10.314 9.04451 10.3767 8.46745 10.2658C8.0841 10.1921 7.71902 10.0436 7.39308 9.82876C7.06714 9.61393 6.78672 9.33697 6.56785 9.01373C6.34898 8.69048 6.19595 8.32728 6.11751 7.94487C6.03906 7.56246 6.03673 7.16834 6.11066 6.78503ZM10.4344 15.7767C10.3223 16.3535 10.0418 16.8841 9.6282 17.3014C9.21464 17.7188 8.68662 18.0042 8.11089 18.1215C7.53516 18.2389 6.93757 18.1829 6.39365 17.9607C5.84973 17.7385 5.3839 17.36 5.05504 16.8731C4.72617 16.3862 4.54905 15.8127 4.54604 15.2251C4.54304 14.6376 4.7143 14.0623 5.03816 13.5721C5.36203 13.0818 5.82397 12.6986 6.36559 12.4708C6.90721 12.2431 7.5042 12.181 8.08109 12.2924C8.46449 12.3665 8.82953 12.5154 9.15534 12.7306C9.48115 12.9459 9.76134 13.2232 9.9799 13.5468C10.1985 13.8704 10.3511 14.2339 10.4291 14.6165C10.5071 14.9991 10.5089 15.3934 10.4344 15.7767ZM11.6953 13.3707C11.4392 13.3212 11.2035 13.1969 11.018 13.0136C10.8324 12.8302 10.7053 12.596 10.6527 12.3405C10.6 12.085 10.6242 11.8197 10.7223 11.5779C10.8203 11.3362 10.9877 11.1289 11.2033 10.9822C11.419 10.8354 11.6733 10.7559 11.9342 10.7535C12.195 10.7511 12.4507 10.8261 12.669 10.9689C12.8873 11.1116 13.0585 11.3159 13.1608 11.5558C13.2632 11.7957 13.2923 12.0606 13.2443 12.317C13.2122 12.4881 13.1467 12.6513 13.0514 12.797C12.9561 12.9427 12.8329 13.0681 12.689 13.166C12.545 13.264 12.3831 13.3325 12.2126 13.3676C12.0421 13.4027 11.8663 13.4038 11.6953 13.3707ZM17.8946 17.2097C17.7834 17.7867 17.5035 18.3178 17.0905 18.7357C16.6774 19.1537 16.1497 19.4398 15.5741 19.5579C14.9984 19.676 14.4007 19.6207 13.8565 19.3991C13.3122 19.1776 12.8459 18.7996 12.5165 18.313C12.187 17.8264 12.0092 17.2531 12.0055 16.6655C12.0019 16.0779 12.1725 15.5024 12.4959 15.0117C12.8193 14.5211 13.2809 14.1374 13.8224 13.909C14.3638 13.6807 14.9608 13.6181 15.5378 13.729C15.9212 13.8027 16.2863 13.9512 16.6122 14.166C16.9382 14.3808 17.2186 14.6578 17.4375 14.981C17.6563 15.3043 17.8093 15.6675 17.8878 16.0499C17.9662 16.4323 17.9686 16.8264 17.8946 17.2097ZM15.9277 11.7023C15.3507 11.5911 14.8197 11.3112 14.4017 10.8982C13.9838 10.4851 13.6977 9.95741 13.5796 9.38177C13.4615 8.80614 13.5167 8.20842 13.7383 7.66417C13.9599 7.11993 14.3379 6.6536 14.8244 6.32415C15.311 5.99469 15.8844 5.81689 16.472 5.81324C17.0596 5.80959 17.6351 5.98024 18.1257 6.30363C18.6163 6.62701 19.0001 7.0886 19.2284 7.63005C19.4567 8.1715 19.5194 8.76849 19.4085 9.34554C19.3352 9.72921 19.187 10.0947 18.9723 10.421C18.7577 10.7473 18.4808 11.0282 18.1575 11.2474C17.8342 11.4666 17.4708 11.6199 17.0882 11.6986C16.7056 11.7773 16.3113 11.7797 15.9277 11.7059V11.7023Z" fill="#091E42"></path>
              </g>
              <defs>
                <clipPath id="clip0_14729_224906">
                  <rect width="24" height="24" fill="white"></rect>
                </clipPath>
              </defs>
            </svg>