<svg width="28" height="28" viewBox="0 0 28 28" fill="none" xmlns="http://www.w3.org/2000/svg">
<path d="M24.4872 23.1512C24.5554 23.0829 24.6236 22.9805 24.6918 22.9122C24.76 22.8098 24.8283 22.7415 24.8965 22.639C24.9647 22.5366 25.0329 22.4683 25.1011 22.3659C25.1693 22.2634 25.2375 22.161 25.3057 22.0927C25.3739 21.9902 25.4421 21.922 25.5104 21.8195L25.715 21.5122C25.7832 21.4098 25.8173 21.3415 25.8855 21.239C25.9537 21.1366 25.9878 21.0341 26.056 20.9317C26.1242 20.8293 26.1583 20.761 26.2266 20.6585C26.2948 20.5561 26.3289 20.4537 26.3971 20.3512C26.4312 20.2488 26.4994 20.1463 26.5335 20.078C26.6017 19.9756 26.6358 19.8732 26.6699 19.7366C26.704 19.6341 26.7722 19.5317 26.8063 19.4293C26.8404 19.3268 26.9086 19.1902 26.9428 19.0878L27.0451 18.7805C27.0792 18.6781 27.1133 18.5415 27.1815 18.439L27.2838 18.1317L27.3861 17.7561L27.4884 17.4488L27.5907 17.0732C27.6248 16.9707 27.6248 16.8683 27.659 16.7659C27.6931 16.6293 27.6931 16.4927 27.7272 16.3902C27.7613 16.2878 27.7613 16.1854 27.7954 16.0829C27.8295 15.9463 27.8295 15.8098 27.8636 15.6732C27.8636 15.5707 27.8977 15.4683 27.8977 15.4C27.8977 15.2293 27.9318 15.0927 27.9318 14.922C27.9318 14.8537 27.9318 14.7512 27.9659 14.6829C27.9659 14.4439 27.9659 14.239 28 14V13.9659C28 6.89756 22.7479 1.05854 15.961 0.102439H15.9269C15.7223 0.0682927 15.5177 0.0341461 15.2789 0.0341461H15.0743C14.9038 0.0341461 14.7674 0 14.5968 0H13.3009C13.1985 0 13.0962 -1.95896e-07 12.9939 0.0341461C12.8916 0.0341461 12.8234 0.0341463 12.7211 0.0682926C12.6188 0.0682926 12.5164 0.102439 12.4482 0.102439C12.3459 0.102439 12.2777 0.136585 12.1754 0.136585C12.0731 0.136585 11.9708 0.170732 11.9026 0.170732C11.8002 0.170732 11.732 0.204878 11.6297 0.204878C11.5274 0.204878 11.4251 0.239024 11.3569 0.273171C11.2887 0.273171 11.1864 0.307317 11.1181 0.307317C11.0158 0.341463 10.9476 0.341463 10.8453 0.37561C10.7771 0.409756 10.6748 0.409756 10.6066 0.443902C10.5043 0.478049 10.4361 0.478049 10.3337 0.512195C10.2655 0.546341 10.1632 0.546341 10.095 0.580488C9.99269 0.614634 9.92448 0.64878 9.82217 0.64878C9.75396 0.682927 9.65164 0.682927 9.58344 0.717073C9.48112 0.751219 9.41291 0.785366 9.3106 0.819512C9.24239 0.853658 9.14007 0.887805 9.07186 0.887805C8.96955 0.921951 8.90134 0.956097 8.79903 0.990244C8.73082 1.02439 8.66261 1.05854 8.56029 1.09268C8.45798 1.12683 8.38977 1.16098 8.28745 1.19512L8.08283 1.29756C7.98051 1.33171 7.9123 1.4 7.80999 1.43415L7.60536 1.53659C7.50304 1.57073 7.43484 1.63902 7.33252 1.67317L7.12789 1.77561C7.02558 1.80976 6.95737 1.87805 6.85505 1.94634L6.65043 2.04878C6.54811 2.11707 6.4458 2.18537 6.37759 2.21951C6.30938 2.25366 5.79781 2.62927 5.79781 2.62927C5.79781 2.62927 3.23995 0.682927 2.21681 0.170732C1.19367 -0.341463 0 0.37561 0 1.53659V14.0341C0 21.4439 5.7637 27.522 13.0621 28H14.665C14.8015 28 14.9038 28 15.0402 27.9659C15.1425 27.9659 15.2789 27.9659 15.3812 27.9317C15.5177 27.9317 15.62 27.8976 15.7564 27.8976C15.8587 27.8976 15.9951 27.8634 16.0974 27.8634C16.1998 27.8293 16.3362 27.8293 16.4385 27.7951C16.5408 27.761 16.6772 27.761 16.7795 27.7268C16.8818 27.6927 17.0183 27.6585 17.1206 27.6585C17.2229 27.6244 17.3252 27.6244 17.4616 27.5902L17.8027 27.4878L18.1096 27.3854L18.4507 27.2829L18.7576 27.1805C18.8599 27.1463 18.9622 27.1122 19.0987 27.0439C19.201 27.0098 19.3033 26.9756 19.4056 26.9073C19.5079 26.8732 19.6102 26.8049 19.7125 26.7707C19.8149 26.7366 19.9172 26.6683 20.0195 26.6341C20.1218 26.6 20.2241 26.5317 20.3264 26.4634C20.4287 26.4293 20.5311 26.361 20.6334 26.3268C20.7357 26.2585 20.838 26.2244 20.9403 26.1561C21.0426 26.0878 21.1449 26.0537 21.2132 25.9854C21.3155 25.9171 21.4178 25.8488 21.5201 25.8146C21.6224 25.7463 21.6906 25.7122 21.7929 25.6439C21.8953 25.5756 21.9976 25.5073 22.0658 25.439C22.1681 25.3707 22.2363 25.3024 22.3386 25.2341C22.4409 25.1659 22.5091 25.0976 22.6115 25.0293C22.7138 24.961 22.782 24.8927 22.8843 24.8244C22.9866 24.7561 23.0548 24.6878 23.1571 24.5854C23.2253 24.5171 23.3276 24.4488 23.3959 24.3805C23.4982 24.3122 23.5664 24.2098 23.6346 24.1415C23.7028 24.0732 23.8051 24.0049 23.8733 23.9024L24.1121 23.6634C24.1803 23.5951 24.2485 23.4927 24.3508 23.4244C24.3167 23.322 24.3849 23.2537 24.4872 23.1512Z" fill="url(#paint0_linear)"/>
<path d="M12.0389 21.1366C11.3568 21.1366 10.6406 20.8635 10.0949 20.3513L5.76364 15.9805C4.70639 14.922 4.70639 13.1805 5.76364 12.122C6.82089 11.0635 8.56023 11.0635 9.61748 12.122L12.0389 14.5464L18.2119 8.36589C19.2691 7.30736 21.0085 7.30736 22.0657 8.36589C23.123 9.42443 23.123 11.1659 22.0657 12.2244L13.9488 20.3171C13.4372 20.8635 12.721 21.1366 12.0389 21.1366Z" fill="white"/>
<defs>
<linearGradient id="paint0_linear" x1="2.64994" y1="21.6044" x2="21.6148" y2="2.66263" gradientUnits="userSpaceOnUse">
<stop stop-color="#2D2B73"/>
<stop offset="1" stop-color="#4DF1B6"/>
</linearGradient>
</defs>
</svg>
