<svg width="48" height="48" viewBox="0 0 48 48" fill="none" xmlns="http://www.w3.org/2000/svg">
            <path fill-rule="evenodd" clip-rule="evenodd" d="M7.05199 7.373C9.06697 5.21124 11.9374 4 15.33 4H32.668C36.0686 4 38.9403 5.2106 40.9543 7.37356C42.9571 9.52444 44 12.4952 44 15.832V32.168C44 35.5048 42.9571 38.4756 40.954 40.6265C38.9396 42.7895 36.0674 44 32.666 44H15.33C11.9294 44 9.05813 42.7894 7.04457 40.6263C5.04231 38.4753 4 35.5046 4 32.168V15.832C4 12.4935 5.04793 9.52305 7.05199 7.373ZM9.24651 9.4185C7.84607 10.921 7 13.1165 7 15.832V32.168C7 34.8854 7.84269 37.0807 9.24043 38.5822C10.6269 40.0716 12.6706 41 15.33 41H32.666C35.3266 41 37.3714 40.0715 38.7585 38.582C40.1569 37.0804 41 34.8852 41 32.168V15.832C41 13.1148 40.1569 10.9196 38.7587 9.41794C37.3717 7.9284 35.3274 7 32.668 7H15.33C12.6806 7 10.636 7.92776 9.24651 9.4185Z" fill="#5E6C84"></path>
            <path fill-rule="evenodd" clip-rule="evenodd" d="M32.1757 18.1972C32.7614 18.7829 32.7614 19.7327 32.1757 20.3185L22.6837 29.8105C22.098 30.3962 21.1484 30.3963 20.5626 29.8107L15.8146 25.0647C15.2287 24.479 15.2285 23.5293 15.8141 22.9434C16.3998 22.3575 17.3495 22.3573 17.9354 22.9429L21.6228 26.6287L30.0543 18.1972C30.6401 17.6114 31.5899 17.6114 32.1757 18.1972Z" fill="#09B188"></path>
          </svg>