<svg width="32" height="32" viewBox="0 0 32 32" fill="none" xmlns="http://www.w3.org/2000/svg">
              <path fill-rule="evenodd" clip-rule="evenodd" d="M16.0039 22.0547C15.4519 22.0547 15.0039 21.6067 15.0039 21.0547V5C15.0039 4.448 15.4519 4 16.0039 4C16.5559 4 17.0039 4.448 17.0039 5V21.0547C17.0039 21.6067 16.5559 22.0547 16.0039 22.0547Z" fill="#5E6C84"></path>
              <path fill-rule="evenodd" clip-rule="evenodd" d="M16.0004 22.0547C15.7351 22.0547 15.4791 21.9493 15.2924 21.76L11.4044 17.8573C11.0151 17.4653 11.0164 16.832 11.4071 16.4427C11.7991 16.0533 12.4311 16.0533 12.8204 16.4453L16.0004 19.6387L19.1804 16.4453C19.5698 16.0533 20.2018 16.0533 20.5938 16.4427C20.9844 16.832 20.9858 17.4653 20.5964 17.8573L16.7084 21.76C16.5218 21.9493 16.2658 22.0547 16.0004 22.0547Z" fill="#5E6C84"></path>
              <mask id="mask0_14687_232045" style="mask-type: alpha" maskUnits="userSpaceOnUse" x="2" y="10" width="28" height="19">
                <path fill-rule="evenodd" clip-rule="evenodd" d="M2.66797 10.31H29.3344V28.6353H2.66797V10.31Z" fill="white"></path>
              </mask>
              <g mask="url(#mask0_14687_232045)">
                <path fill-rule="evenodd" clip-rule="evenodd" d="M23.4346 28.6353H8.5813C5.3213 28.6353 2.66797 25.9833 2.66797 22.722V16.2087C2.66797 12.9553 5.31464 10.31 8.5693 10.31H9.82397C10.376 10.31 10.824 10.758 10.824 11.31C10.824 11.862 10.376 12.31 9.82397 12.31H8.5693C6.4173 12.31 4.66797 14.058 4.66797 16.2087V22.722C4.66797 24.8807 6.42264 26.6353 8.5813 26.6353H23.4346C25.584 26.6353 27.3346 24.8847 27.3346 22.7353V16.2233C27.3346 14.0647 25.5786 12.31 23.4226 12.31H22.18C21.628 12.31 21.18 11.862 21.18 11.31C21.18 10.758 21.628 10.31 22.18 10.31H23.4226C26.6826 10.31 29.3346 12.9633 29.3346 16.2233V22.7353C29.3346 25.9887 26.6866 28.6353 23.4346 28.6353Z" fill="#5E6C84"></path>
              </g>
            </svg>