<svg width="25" height="24" viewBox="0 0 25 24" fill="none" xmlns="http://www.w3.org/2000/svg">
              <path fill-rule="evenodd" clip-rule="evenodd" d="M12.8833 13.7155C12.2063 13.7155 11.5312 13.4945 10.9665 13.0525L6.42747 9.43648C6.10058 9.17648 6.04998 8.70348 6.3121 8.38148C6.57624 8.06048 7.05393 8.00948 7.37981 8.26848L11.9148 11.8805C12.4846 12.3265 13.2871 12.3265 13.861 11.8765L18.3504 8.27048C18.6763 8.00748 19.154 8.05748 19.4191 8.37948C19.6833 8.70048 19.6337 9.17248 19.3088 9.43448L14.8113 13.0465C14.2425 13.4925 13.5624 13.7155 12.8833 13.7155Z" fill="#5E6C84"></path>
              <mask id="mask0_14687_232148" style="mask-type: alpha" maskUnits="userSpaceOnUse" x="1" y="2" width="23" height="20">
                <path fill-rule="evenodd" clip-rule="evenodd" d="M1.97656 2.25H23.7355V21.75H1.97656V2.25Z" fill="white"></path>
              </mask>
              <g mask="url(#mask0_14687_232148)">
                <path fill-rule="evenodd" clip-rule="evenodd" d="M7.88591 20.25H17.8242C17.8262 20.248 17.8343 20.25 17.8404 20.25C18.9952 20.25 20.0194 19.842 20.8047 19.067C21.7166 18.17 22.2175 16.881 22.2175 15.438V8.57C22.2175 5.777 20.3695 3.75 17.8242 3.75H7.88794C5.34263 3.75 3.49463 5.777 3.49463 8.57V15.438C3.49463 16.881 3.99661 18.17 4.90745 19.067C5.6928 19.842 6.71801 20.25 7.87174 20.25H7.88591ZM7.86871 21.75C6.30712 21.75 4.91251 21.19 3.83569 20.13C2.63642 18.948 1.97656 17.282 1.97656 15.438V8.57C1.97656 4.967 4.51782 2.25 7.88794 2.25H17.8242C21.1943 2.25 23.7356 4.967 23.7356 8.57V15.438C23.7356 17.282 23.0757 18.948 21.8765 20.13C20.8007 21.189 19.405 21.75 17.8404 21.75H17.8242H7.88794H7.86871Z" fill="#5E6C84"></path>
              </g>
            </svg>