<svg width="145" height="34" viewBox="0 0 145 34" fill="none" xmlns="http://www.w3.org/2000/svg">
<path d="M46.8697 4.33043C46.8697 5.37346 46.5591 6.20404 45.9372 6.82364C45.2307 7.56039 44.31 7.92905 43.1781 7.92905C42.0941 7.92905 41.1725 7.55558 40.4146 6.80758C39.6554 6.06014 39.2765 5.13326 39.2765 4.0274C39.2765 2.92103 39.6554 1.99472 40.4146 1.24666C41.1725 0.499273 42.0941 0.125244 43.1781 0.125244C43.7159 0.125244 44.2309 0.229871 44.7198 0.438511C45.2087 0.647654 45.6008 0.925279 45.8942 1.27296L45.2341 1.92993C44.7369 1.33909 44.0524 1.04389 43.1781 1.04389C42.3876 1.04389 41.704 1.32018 41.1271 1.87308C40.5501 2.42654 40.2617 3.14428 40.2617 4.0274C40.2617 4.91058 40.5501 5.62825 41.1271 6.18177C41.704 6.73467 42.3875 7.0109 43.1781 7.0109C44.0167 7.0109 44.7159 6.73316 45.2757 6.1769C45.639 5.81451 45.8491 5.31079 45.9054 4.66395H43.178V3.76673H46.8173C46.8525 3.96183 46.8696 4.14904 46.8696 4.33043" fill="#091E42"/>
<path d="M46.8696 4.32968H46.7444C46.7434 5.34893 46.4441 6.14058 45.8485 6.73488L45.8472 6.73589L45.8467 6.7369C45.1626 7.44825 44.2834 7.80231 43.1779 7.80382C42.1229 7.80231 41.2399 7.44439 40.5025 6.71882C39.7668 5.9918 39.4029 5.10426 39.4015 4.02665C39.4029 2.94854 39.7668 2.0615 40.5025 1.33498C41.2399 0.608912 42.1229 0.250492 43.1779 0.248982C43.6997 0.248982 44.1965 0.350252 44.6702 0.55201C45.1445 0.755334 45.5191 1.02177 45.7982 1.35255L45.8941 1.2722L45.8056 1.18419L45.1455 1.84161L45.2339 1.92918L45.3303 1.8495C44.81 1.2294 44.0797 0.916807 43.178 0.918653C42.3581 0.917646 41.6369 1.20904 41.0404 1.78292C40.438 2.35865 40.1354 3.11678 40.1364 4.02665C40.1354 4.93658 40.438 5.69465 41.0404 6.27044C41.6369 6.84432 42.3581 7.13566 43.1779 7.13465C44.0443 7.13616 44.7827 6.84382 45.364 6.26417C45.7522 5.87699 45.9723 5.34071 46.03 4.67389L46.0417 4.53871H43.3031V3.89047H46.8172V3.76598L46.6939 3.78785C46.7282 3.97663 46.7443 4.15601 46.7443 4.32968H46.9947C46.9947 4.14045 46.977 3.94597 46.9404 3.74371L46.9218 3.64149H43.0529V4.78769H45.9053V4.6632L45.7806 4.65251C45.7254 5.27894 45.5249 5.75066 45.187 6.08821C44.6492 6.62113 43.9892 6.88416 43.178 6.88567C42.4168 6.88466 41.7709 6.62399 41.214 6.09151C40.6625 5.56093 40.3882 4.88353 40.3868 4.02665C40.3882 3.16977 40.6625 2.49238 41.214 1.9618C41.7709 1.42931 42.4167 1.16864 43.178 1.16763C44.0244 1.16965 44.6635 1.44778 45.1383 2.00947L45.2263 2.11353L45.9826 1.36027L46.0638 1.27959L45.9899 1.19242C45.6824 0.82779 45.2726 0.538358 44.769 0.323508C44.2645 0.107986 43.732 1.73994e-06 43.178 1.73994e-06C42.0652 -0.00094942 41.105 0.388075 40.3261 1.15795C39.5443 1.92632 39.1502 2.89214 39.1513 4.02665C39.1502 5.16066 39.5443 6.12703 40.3266 6.89585C41.105 7.66523 42.0652 8.0538 43.178 8.0528C44.3368 8.0538 45.2981 7.67099 46.0276 6.90894L45.937 6.82289L46.0256 6.91096C46.6739 6.26658 46.9956 5.3961 46.9947 4.32968H46.8695H46.8696ZM52.6389 1.20949H49.2188V3.57787H52.3031V4.47543H49.2188V6.84382H52.6389V7.76146H48.2546V0.29184H52.6389V1.20949Z" fill="#091E42"/>
<path d="M52.6391 1.21035V1.08586H49.0939V3.70322H52.1781V4.35147L49.0938 4.3518V6.96917H52.5139V7.63783H48.38V0.417193H52.5139V1.21035H52.6391V1.08586V1.21035H52.7642V0.168213H48.1297V7.88681H52.7642V6.72019H49.3441V4.60078H52.4284V3.45424H49.3441V1.33484H52.7642V1.21035H52.6391ZM56.7085 7.76238H55.7428V1.21029H53.6453V0.292647H58.806V1.21029H56.7085V7.76227" fill="#091E42"/>
<path d="M56.7084 7.76238V7.63783H55.8679V1.08586H53.7704V0.417249H58.6807V1.08586H56.5832V7.76232H56.7084V7.63783V7.76232H56.8335V1.33484H58.9311V0.168213H53.52V1.33478H55.6175V7.88676H56.8335V7.76227H56.7084V7.76238ZM62.5399 7.76238V0.292647H63.5046V7.76227H62.5399" fill="#091E42"/>
<path d="M62.5399 7.76238H62.6651V0.417193H63.3793V7.63783H62.5399V7.76232H62.6651H62.5399V7.88681H63.6297V0.168213H62.4147V7.88681H62.5399V7.76232V7.76238ZM67.7851 7.76238H66.8195V1.21029H64.722V0.292647H69.8827V1.21029H67.7851V7.76227" fill="#091E42"/>
<path d="M67.7853 7.76226V7.63772H66.9448V1.08575H64.8474V0.417138H69.7576V1.08575H67.6601V7.76221H67.7853V7.63772V7.76221H67.9105V1.33473H70.008V0.168102H64.597V1.33467H66.6945V7.88664H67.9105V7.76215H67.7853V7.76226ZM74.8582 6.17159C75.4141 6.73126 76.0943 7.01085 76.8986 7.01085C77.7029 7.01085 78.3834 6.73126 78.9384 6.17159C79.4948 5.61186 79.7735 4.89637 79.7735 4.0274C79.7735 3.15849 79.4948 2.44299 78.9384 1.88326C78.3834 1.32354 77.7029 1.04389 76.8986 1.04389C76.0943 1.04389 75.4141 1.32354 74.8582 1.88326C74.3033 2.44299 74.0246 3.15843 74.0246 4.0274C74.0246 4.89637 74.3033 5.61186 74.8582 6.17159ZM79.6522 6.79689C78.9139 7.55206 77.9957 7.92905 76.8986 7.92905C75.8004 7.92905 74.8826 7.55206 74.1459 6.79689C73.4071 6.04257 73.0394 5.11922 73.0394 4.0274C73.0394 2.93558 73.4071 2.01206 74.1459 1.25791C74.8826 0.502574 75.8004 0.125244 76.8986 0.125244C77.9899 0.125244 78.9056 0.504588 79.6474 1.26277C80.3881 2.0209 80.7587 2.94241 80.7587 4.0274C80.7587 5.11922 80.389 6.04257 79.6522 6.79689Z" fill="#091E42"/>
<path d="M74.8582 6.17083L74.7691 6.25834C75.3457 6.84045 76.0649 7.13615 76.8985 7.13464C77.7316 7.13615 78.4518 6.84045 79.0273 6.25834C79.6076 5.67567 79.8995 4.92191 79.8986 4.02665C79.8994 3.13144 79.6076 2.37762 79.0273 1.79495C78.4518 1.21284 77.7316 0.917199 76.8985 0.918653C76.0649 0.917199 75.3457 1.21284 74.7691 1.79495C74.1903 2.37762 73.8978 3.13144 73.8994 4.02665C73.8978 4.92185 74.1903 5.67567 74.7691 6.25834L74.8582 6.17083L74.9472 6.08327C74.4162 5.54587 74.1507 4.86987 74.1497 4.02665C74.1507 3.18347 74.4162 2.50748 74.9471 1.97002C75.483 1.43273 76.123 1.16914 76.8985 1.16769C77.6734 1.16914 78.3149 1.43273 78.8493 1.97002C79.3813 2.50748 79.6468 3.18347 79.6477 4.02665C79.6468 4.86982 79.3813 5.54587 78.8493 6.08327C78.3149 6.62062 77.6734 6.88415 76.8985 6.8856C76.123 6.88415 75.483 6.62062 74.9471 6.08327L74.8582 6.17083ZM79.6521 6.79614L79.5627 6.70964C78.845 7.44102 77.9673 7.80235 76.8985 7.8038C75.8292 7.80229 74.9515 7.44102 74.2352 6.70964L74.2318 6.70572L74.2352 6.70964C73.519 5.97573 73.1655 5.09071 73.1645 4.02665C73.1655 2.96258 73.519 2.07755 74.2352 1.34371C74.9515 0.612269 75.8291 0.250494 76.8985 0.249039C77.9604 0.250494 78.836 0.613779 79.5578 1.34902C80.2765 2.08628 80.632 2.96991 80.6335 4.02665C80.632 5.09071 80.2775 5.97573 79.5627 6.70964L79.6521 6.79614L79.7422 6.88264C80.5009 6.10755 80.8847 5.1461 80.8838 4.02665C80.8847 2.91357 80.4994 1.95407 79.7372 1.17552C78.9745 0.393894 78.0191 -0.00133938 76.8985 3.42607e-06C75.772 -0.00133938 74.8137 0.392048 74.0558 1.17065V1.17009C73.2956 1.94574 72.9132 2.90719 72.9142 4.02665C72.9132 5.1461 73.2956 6.10755 74.0558 6.88314L74.0592 6.88666L74.0558 6.88264C74.8137 7.66124 75.772 8.05379 76.8985 8.05278C78.0245 8.05379 78.9828 7.66124 79.7422 6.88264L79.6521 6.79614ZM82.1129 7.76151V0.291785H83.2874L86.9372 6.10263H86.9788L86.9372 4.66314V0.291785H87.9029V7.76139H86.8957L83.0771 1.66895H83.0355L83.0771 3.10895V7.76139H82.113" fill="#091E42"/>
<path d="M82.1128 7.76238H82.238V0.417193H83.2178L86.8677 6.22805H87.1072L87.0623 4.66222V0.417249H87.7776V7.63784H86.965L83.1465 1.54538H82.9069L82.9518 3.11188V7.63784H82.1128L82.1128 7.76238L82.1128 7.88682H83.2021V3.10791L83.1606 1.66651L83.0354 1.66987V1.79436H83.077V1.66987L82.9708 1.73606L86.8261 7.88682H88.0279V0.168213H86.812V4.66552L86.8535 6.10692L86.9787 6.10356V5.97907H86.9371V6.10356L87.0433 6.03748L83.3566 0.168213H81.9877V7.88682H82.1128L82.1128 7.76238ZM121.366 28.9263H123.702V13.3631H121.366L121.366 28.9263ZM142.403 18.9693L139.725 25.7167H139.645L136.867 18.9693H134.351L138.518 28.4001L136.142 33.6459H138.579L145 18.9693L142.403 18.9693ZM129.158 27.1586C128.392 27.1586 127.325 26.7783 127.325 25.8369C127.325 24.6356 128.654 24.1751 129.801 24.1751C130.829 24.1751 131.31 24.3954 131.935 24.696C131.754 26.1374 130.506 27.1586 129.158 27.1586ZM129.439 18.6288C127.748 18.6288 125.997 19.3699 125.272 21.0118L127.345 21.8725C127.788 21.0118 128.613 20.7311 129.479 20.7311C130.687 20.7311 131.915 21.4523 131.935 22.7337V22.8938C131.512 22.6535 130.607 22.2931 129.499 22.2931C127.265 22.2931 124.99 23.5142 124.99 25.7969C124.99 27.8793 126.822 29.221 128.875 29.221C130.446 29.221 131.31 28.5202 131.855 27.6994H131.935V28.9006H134.189V22.9335C134.189 20.1709 132.117 18.6288 129.439 18.6288ZM115.005 20.8638H111.683V15.5292H115.005C116.751 15.5292 117.742 16.9671 117.742 18.1964C117.742 19.4025 116.751 20.8638 115.005 20.8638ZM114.945 13.3631H109.349V28.9263H111.683V23.0299H114.945C117.533 23.0299 120.078 21.1658 120.078 18.1964C120.078 15.2271 117.533 13.3631 114.945 13.3631ZM84.4279 27.1615C82.8144 27.1615 81.4635 25.8179 81.4635 23.9723C81.4635 22.1074 82.8144 20.7433 84.4279 20.7433C86.0209 20.7433 87.2711 22.1074 87.2711 23.9723C87.2711 25.8179 86.0209 27.1615 84.4279 27.1615ZM87.1097 19.8408H87.029C86.5049 19.2192 85.4962 18.6576 84.226 18.6576C81.5642 18.6576 79.1245 20.984 79.1245 23.9723C79.1245 26.9408 81.5642 29.2473 84.226 29.2473C85.4962 29.2473 86.5049 28.6855 87.029 28.0441H87.1097V28.8062C87.1097 30.8322 86.0209 31.9152 84.2666 31.9152C82.8349 31.9152 81.9476 30.892 81.5842 30.0297L79.5479 30.872C80.1327 32.2759 81.6855 34.0009 84.2666 34.0009C87.009 34.0009 89.328 32.3961 89.328 28.4852V18.9785H87.1097V19.8408ZM90.941 28.9263H93.2801V13.3625H90.941V28.9263ZM96.7284 23.7919C96.6679 21.746 98.3214 20.7034 99.511 20.7034C100.439 20.7034 101.225 21.1644 101.487 21.8268L96.7284 23.7919ZM103.988 22.0271C103.545 20.8434 102.193 18.6576 99.4303 18.6576C96.6879 18.6576 94.4095 20.8036 94.4095 23.9524C94.4095 26.9209 96.6679 29.2473 99.6924 29.2473C102.133 29.2473 103.545 27.763 104.129 26.9008L102.314 25.6972C101.71 26.5798 100.882 27.1615 99.6924 27.1615C98.5028 27.1615 97.6561 26.6198 97.1113 25.5571L104.229 22.6287L103.988 22.0271ZM47.2768 20.2822V22.5285H52.6809C52.5196 23.7919 52.0961 24.7145 51.4508 25.3563C50.6646 26.1388 49.4345 27.001 47.2768 27.001C43.9495 27.001 41.3484 24.3336 41.3484 21.0243C41.3484 17.715 43.9495 15.0473 47.2768 15.0473C49.0716 15.0473 50.382 15.7494 51.35 16.6519L52.943 15.0676C51.5921 13.7837 49.7972 12.801 47.2768 12.801C42.7194 12.801 38.8881 16.4915 38.8881 21.0243C38.8881 25.5571 42.7194 29.2473 47.2768 29.2473C49.7371 29.2473 51.5921 28.4454 53.0438 26.9408C54.536 25.4565 55 23.3708 55 21.6862C55 21.1644 54.9599 20.6834 54.8787 20.2822H47.2768ZM61.144 27.1615C59.5304 27.1615 58.139 25.8377 58.139 23.9524C58.139 22.047 59.5304 20.7433 61.144 20.7433C62.7569 20.7433 64.1483 22.047 64.1483 23.9524C64.1483 25.8378 62.7569 27.1615 61.144 27.1615ZM61.144 18.6576C58.1995 18.6576 55.7998 20.8837 55.7998 23.9524C55.7998 27.001 58.1995 29.2473 61.144 29.2473C64.0878 29.2473 66.4875 27.001 66.4875 23.9524C66.4875 20.8837 64.0878 18.6576 61.144 18.6576ZM72.801 27.1615C71.1881 27.1615 69.7965 25.8377 69.7965 23.9524C69.7965 22.047 71.1881 20.7433 72.801 20.7433C74.414 20.7433 75.8055 22.047 75.8055 23.9524C75.8055 25.8378 74.414 27.1615 72.801 27.1615ZM72.801 18.6576C69.8567 18.6576 67.4575 20.8837 67.4575 23.9524C67.4575 27.001 69.8567 29.2473 72.801 29.2473C75.7449 29.2473 78.1447 27.001 78.1447 23.9524C78.1447 20.8837 75.7449 18.6576 72.801 18.6576Z" fill="#091E42"/>
<path d="M0.670776 1.05278C0.250731 1.42972 0 2.05844 0 2.89299V2.70433V30.2437V30.0624C0 30.8331 0.215065 31.4283 0.579273 31.8116L0.672241 31.9001V31.9005C0.967033 32.1651 1.34504 32.3056 1.77827 32.3051C2.20159 32.3051 2.67786 32.1709 3.18051 31.8875L21.3488 21.6201L27.5894 18.0929C28.382 17.6451 28.827 17.0673 28.9013 16.4789V16.4764C28.827 15.8866 28.382 15.3093 27.5895 14.8614L21.3482 11.3347L3.18056 1.06733C2.67685 0.78338 2.20023 0.648651 1.77579 0.648651C1.34307 0.648651 0.965568 0.788695 0.670888 1.05278H0.670776Z" fill="#00C1FF"/>
<path d="M0.672297 31.9L0.579273 31.8115C0.215065 31.4282 0 30.833 0 30.0622V30.2436V2.71105V2.89289C0 2.05833 0.250731 1.42962 0.670776 1.05268L16.1787 16.4768L0.672297 31.9Z" fill="url(#paint0_linear)"/>
<path d="M21.3487 21.6202L16.1787 16.4771L21.3483 11.3349L27.5894 14.8616C28.382 15.3095 28.8269 15.8867 28.9013 16.4766V16.479C28.8269 17.0675 28.382 17.6453 27.5894 18.093L21.3488 21.6202" fill="url(#paint1_linear)"/>
<path d="M1.77828 32.3054C1.34511 32.3058 0.967099 32.1652 0.672363 31.9007V31.9003L16.1788 16.4771L21.3488 21.6202L3.18052 31.8877C2.67787 32.1712 2.2016 32.3054 1.77828 32.3054Z" fill="url(#paint2_linear)"/>
<path d="M16.1789 16.477L0.670898 1.05286C0.96569 0.788774 1.3432 0.648728 1.77586 0.648728C2.2003 0.648728 2.67697 0.783401 3.18063 1.06741L21.3484 11.3348L16.1789 16.477" fill="url(#paint3_linear)"/>
<path d="M1.77899 32.4875C1.34581 32.4875 0.967293 32.3469 0.672501 32.0824L0.671994 32.0828C0.670781 32.0816 0.669482 32.0805 0.668106 32.0795L0.587478 32.0011C0.584943 31.9987 0.582576 31.9958 0.57959 31.993L0.672558 31.9005C0.967349 32.165 1.34531 32.3056 1.77859 32.3051C2.20185 32.3051 2.67812 32.1709 3.18077 31.8874L21.349 21.62L21.4654 21.7358L21.3475 21.8024L3.18071 32.0692C2.72264 32.3275 2.28693 32.4622 1.89336 32.4846C1.85527 32.4865 1.81713 32.4874 1.77899 32.4874" fill="url(#paint4_linear)"/>
<path d="M0.579359 31.9932C0.215097 31.6099 0 31.0152 0 30.244V30.0626C0 30.8333 0.215097 31.4285 0.579359 31.8118L0.67234 31.9003L0.579359 31.9932Z" fill="url(#paint5_linear)"/>
<path d="M21.465 21.7359L21.3486 21.6201L27.5893 18.093C28.3819 17.6452 28.8268 17.0674 28.9012 16.479C28.9012 16.6949 28.8527 16.9108 28.7565 17.121C28.5624 17.5445 28.1732 17.9447 27.5893 18.2749L21.465 21.736" fill="url(#paint6_linear)"/>
<path d="M28.9012 16.4765C28.8269 15.8866 28.3819 15.3094 27.5894 14.8615L21.3481 11.3348L21.4646 11.219H21.4651L27.5894 14.6801C28.4632 15.1742 28.9007 15.8253 28.9012 16.4765Z" fill="url(#paint7_linear)"/>
<path d="M0 2.89301V2.70277C0 2.63418 0.00185962 2.56709 0.0054098 2.50197V2.499C0.0054098 2.49811 0.0054098 2.49716 0.00574791 2.49615V2.48882C0.0434475 1.82497 0.250767 1.30714 0.579356 0.961369L0.670872 1.05274C0.250767 1.42973 0 2.05845 0 2.89301Z" fill="url(#paint8_linear)"/>
<path d="M21.3483 11.3348L3.18052 1.06736C2.67686 0.783412 2.20025 0.64874 1.77581 0.64874C1.34309 0.64874 0.965584 0.788783 0.670848 1.05287L0.579346 0.961446C0.607921 0.931357 0.637616 0.902336 0.668369 0.874444C0.669327 0.873437 0.670848 0.872429 0.671806 0.871478C0.964232 0.609406 1.33774 0.469361 1.76657 0.466844H1.77581C2.20025 0.466844 2.67686 0.601573 3.18052 0.885633L21.4652 11.2186L21.4647 11.219L21.3483 11.3348Z" fill="url(#paint9_linear)"/>
<defs>
<linearGradient id="paint0_linear" x1="9.91053" y1="2.42006" x2="-3.36005" y2="15.8055" gradientUnits="userSpaceOnUse">
<stop stop-color="#00A0FF"/>
<stop offset="0.00657" stop-color="#00A1FF"/>
<stop offset="0.2601" stop-color="#00BEFF"/>
<stop offset="0.5122" stop-color="#00D2FF"/>
<stop offset="0.7604" stop-color="#00DFFF"/>
<stop offset="1" stop-color="#00E3FF"/>
</linearGradient>
<linearGradient id="paint1_linear" x1="29.867" y1="16.3882" x2="-0.419705" y2="16.3882" gradientUnits="userSpaceOnUse">
<stop stop-color="#FFE000"/>
<stop offset="0.4087" stop-color="#FFBD00"/>
<stop offset="0.7754" stop-color="#FFA500"/>
<stop offset="1" stop-color="#FF9C00"/>
</linearGradient>
<linearGradient id="paint2_linear" x1="18.604" y1="21.367" x2="-3.88517" y2="43.8851" gradientUnits="userSpaceOnUse">
<stop stop-color="#FF3A44"/>
<stop offset="1" stop-color="#C31162"/>
</linearGradient>
<linearGradient id="paint3_linear" x1="-3.32595" y1="-1.23385" x2="6.69685" y2="8.81729" gradientUnits="userSpaceOnUse">
<stop stop-color="#32A071"/>
<stop offset="0.0685" stop-color="#2DA771"/>
<stop offset="0.4762" stop-color="#15CF74"/>
<stop offset="0.8009" stop-color="#06E775"/>
<stop offset="1" stop-color="#00F076"/>
</linearGradient>
<linearGradient id="paint4_linear" x1="18.5929" y1="24.9343" x2="0.583382" y2="43.0998" gradientUnits="userSpaceOnUse">
<stop stop-color="#CC2E36"/>
<stop offset="1" stop-color="#9C0E4E"/>
</linearGradient>
<linearGradient id="paint5_linear" x1="2.0662" y1="2.42023" x2="-9.62502" y2="14.2145" gradientUnits="userSpaceOnUse">
<stop stop-color="#008DE0"/>
<stop offset="0.00657" stop-color="#008DE0"/>
<stop offset="0.2601" stop-color="#00A7E0"/>
<stop offset="0.5122" stop-color="#00B8E0"/>
<stop offset="0.7604" stop-color="#00C4E0"/>
<stop offset="1" stop-color="#00C7E0"/>
</linearGradient>
<linearGradient id="paint6_linear" x1="29.8669" y1="16.4778" x2="-0.419796" y2="16.4778" gradientUnits="userSpaceOnUse">
<stop stop-color="#E0C500"/>
<stop offset="0.4087" stop-color="#E0A600"/>
<stop offset="0.7754" stop-color="#E09100"/>
<stop offset="1" stop-color="#E08900"/>
</linearGradient>
<linearGradient id="paint7_linear" x1="29.8669" y1="16.4778" x2="-0.41975" y2="16.4778" gradientUnits="userSpaceOnUse">
<stop stop-color="#FFE840"/>
<stop offset="0.4087" stop-color="#FFCE40"/>
<stop offset="0.7754" stop-color="#FFBC40"/>
<stop offset="1" stop-color="#FFB540"/>
</linearGradient>
<linearGradient id="paint8_linear" x1="2.05341" y1="2.44132" x2="-9.21082" y2="13.3124" gradientUnits="userSpaceOnUse">
<stop stop-color="#40B8FF"/>
<stop offset="0.00657" stop-color="#40B9FF"/>
<stop offset="0.2601" stop-color="#40CEFF"/>
<stop offset="0.5122" stop-color="#40DDFF"/>
<stop offset="0.7604" stop-color="#40E7FF"/>
<stop offset="1" stop-color="#40EAFF"/>
</linearGradient>
<linearGradient id="paint9_linear" x1="-3.34865" y1="2.02808" x2="4.69339" y2="10.1399" gradientUnits="userSpaceOnUse">
<stop stop-color="#65B895"/>
<stop offset="0.0685" stop-color="#62BD95"/>
<stop offset="0.4762" stop-color="#50DB97"/>
<stop offset="0.8009" stop-color="#44ED98"/>
<stop offset="1" stop-color="#40F498"/>
</linearGradient>
</defs>
</svg>
