<svg width="238" height="72" viewBox="0 0 238 72" fill="none" xmlns="http://www.w3.org/2000/svg">
<path d="M229.048 71.5H8.80954C4.25051 71.5 0.5 67.684 0.5 63V9.00004C0.5 4.316 4.25044 0.5 8.80954 0.5H229.048C233.607 0.5 237.357 4.316 237.357 9.00004V63C237.357 67.684 233.607 71.5 229.048 71.5Z" fill="#EDF2F5" stroke="#DFE5E8"/>
<path d="M85.9753 19.7099C85.9753 21.0509 85.576 22.1188 84.7764 22.9154C83.8681 23.8627 82.6843 24.3367 81.229 24.3367C79.8353 24.3367 78.6504 23.8565 77.676 22.8948C76.6998 21.9338 76.2126 20.7421 76.2126 19.3203C76.2126 17.8978 76.6998 16.7068 77.676 15.745C78.6504 14.7841 79.8353 14.3032 81.229 14.3032C81.9205 14.3032 82.5826 14.4377 83.2112 14.706C83.8397 14.9749 84.3439 15.3318 84.7211 15.7789L83.8724 16.6235C83.2332 15.8639 82.3531 15.4843 81.229 15.4843C80.2126 15.4843 79.3338 15.8396 78.592 16.5504C77.8501 17.262 77.4793 18.1848 77.4793 19.3203C77.4793 20.4558 77.8501 21.3785 78.592 22.0902C79.3338 22.8011 80.2125 23.1562 81.229 23.1562C82.3072 23.1562 83.2062 22.7991 83.9259 22.0839C84.3931 21.618 84.6632 20.9704 84.7355 20.1387H81.2289V18.9851H85.908C85.9532 19.236 85.9752 19.4767 85.9752 19.7099" fill="#091E42"/>
<path d="M85.9752 19.7093H85.8142C85.8129 21.0198 85.4281 22.0376 84.6624 22.8017L84.6607 22.803L84.66 22.8043C83.7806 23.7189 82.6501 24.1741 81.2288 24.1761C79.8724 24.1741 78.737 23.7139 77.7889 22.7811C76.843 21.8463 76.3752 20.7052 76.3734 19.3197C76.3752 17.9336 76.843 16.7931 77.7889 15.859C78.737 14.9255 79.8724 14.4646 81.2288 14.4627C81.8996 14.4627 82.5383 14.5929 83.1474 14.8523C83.7572 15.1137 84.2388 15.4563 84.5977 15.8816L84.7209 15.7783L84.6072 15.6651L83.7585 16.5104L83.8722 16.6229L83.9962 16.5205C83.3272 15.7232 82.3882 15.3213 81.2289 15.3237C80.1747 15.3224 79.2475 15.6971 78.4805 16.4349C77.7061 17.1751 77.317 18.1499 77.3183 19.3197C77.317 20.4896 77.7061 21.4643 78.4805 22.2046C79.2475 22.9424 80.1748 23.317 81.2288 23.3157C82.3427 23.3176 83.2921 22.9418 84.0395 22.1965C84.5386 21.6987 84.8216 21.0092 84.8957 20.1519L84.9107 19.9781H81.3898V19.1446H85.9078V18.9845L85.7493 19.0127C85.7934 19.2554 85.8142 19.486 85.8142 19.7093H86.136C86.136 19.466 86.1134 19.216 86.0662 18.9559L86.0424 18.8245H81.068V20.2982H84.7354V20.1381L84.5751 20.1244C84.5041 20.9298 84.2463 21.5363 83.8119 21.9703C83.1205 22.6555 82.2718 22.9936 81.2289 22.9956C80.2502 22.9943 79.4198 22.6591 78.7037 21.9745C77.9947 21.2923 77.6419 20.4214 77.6401 19.3197C77.6419 18.218 77.9947 17.3471 78.7037 16.6649C79.4198 15.9803 80.2501 15.6451 81.2289 15.6438C82.3171 15.6464 83.1388 16.004 83.7492 16.7262L83.8624 16.86L84.8348 15.8915L84.9391 15.7878L84.8442 15.6757C84.4488 15.2069 83.922 14.8348 83.2745 14.5585C82.6258 14.2814 81.9412 14.1426 81.2289 14.1426C79.7982 14.1414 78.5636 14.6415 77.5621 15.6314C76.557 16.6193 76.0503 17.861 76.0517 19.3197C76.0503 20.7777 76.557 22.0202 77.5628 23.0087C78.5636 23.9979 79.7982 24.4975 81.2289 24.4962C82.7188 24.4975 83.9547 24.0053 84.8926 23.0255L84.7762 22.9149L84.89 23.0281C85.7236 22.1996 86.1372 21.0804 86.1361 19.7093H85.9751H85.9752ZM93.3929 15.6976H88.9956V18.7427H92.9611V19.8967H88.9956V22.9418H93.3929V24.1216H87.756V14.5178H93.3929V15.6976" fill="#091E42"/>
<path d="M93.3935 15.6983V15.5382H88.8353V18.9034H92.8008V19.7369L88.8353 19.7373V23.1025H93.2325V23.9622H87.9176V14.6785H93.2325V15.6983H93.3935V15.5382V15.6983H93.5544V14.3584H87.5957V24.2823H93.5544V22.7824H89.1571V20.0574H93.1226V18.5833H89.1571V15.8583H93.5544V15.6983H93.3935V15.6983ZM98.6255 24.1223H97.384V15.6982H94.6871V14.5184H101.322V15.6982H98.6255V24.1222" fill="#091E42"/>
<path d="M98.6252 24.1223V23.9622H97.5445V15.5382H94.8477V14.6786H101.161V15.5382H98.4643V24.1223H98.6252V23.9622V24.1223H98.7861V15.8583H101.483V14.3584H94.5259V15.8583H97.2227V24.2822H98.7861V24.1222H98.6252V24.1223ZM106.123 24.1223V14.5184H107.363V24.1222H106.123" fill="#091E42"/>
<path d="M106.123 24.1223H106.284V14.6785H107.202V23.9622H106.123V24.1223H106.284H106.123V24.2823H107.524V14.3584H105.962V24.2823H106.123V24.1223V24.1223ZM112.866 24.1223H111.625V15.6982H108.928V14.5184H115.563V15.6982H112.866V24.1222" fill="#091E42"/>
<path d="M112.867 24.1222V23.9621H111.786V15.5382H109.09V14.6785H115.403V15.5382H112.706V24.1222H112.867V23.9621V24.1222H113.028V15.8583H115.725V14.3583H108.768V15.8582H111.464V24.2822H113.028V24.1221H112.867V24.1222ZM121.961 22.0771C122.675 22.7967 123.55 23.1561 124.584 23.1561C125.618 23.1561 126.493 22.7967 127.207 22.0771C127.922 21.3574 128.28 20.4375 128.28 19.3203C128.28 18.2031 127.922 17.2832 127.207 16.5635C126.493 15.8439 125.618 15.4843 124.584 15.4843C123.55 15.4843 122.675 15.8439 121.961 16.5635C121.247 17.2832 120.889 18.203 120.889 19.3203C120.889 20.4375 121.247 21.3574 121.961 22.0771ZM128.124 22.8811C127.175 23.852 125.995 24.3367 124.584 24.3367C123.172 24.3367 121.992 23.852 121.045 22.8811C120.095 21.9112 119.622 20.724 119.622 19.3203C119.622 17.9165 120.095 16.7291 121.045 15.7595C121.992 14.7884 123.172 14.3032 124.584 14.3032C125.987 14.3032 127.165 14.791 128.118 15.7658C129.071 16.7405 129.547 17.9253 129.547 19.3203C129.547 20.724 129.072 21.9112 128.124 22.8811Z" fill="#091E42"/>
<path d="M121.96 22.0765L121.846 22.189C122.587 22.9374 123.512 23.3176 124.584 23.3157C125.655 23.3176 126.581 22.9374 127.321 22.189C128.067 21.4399 128.442 20.4707 128.441 19.3197C128.442 18.1687 128.067 17.1995 127.321 16.4504C126.581 15.7019 125.655 15.3218 124.584 15.3237C123.512 15.3218 122.587 15.7019 121.846 16.4504C121.102 17.1995 120.726 18.1687 120.728 19.3197C120.726 20.4707 121.102 21.4399 121.846 22.189L121.96 22.0765L122.075 21.9639C121.392 21.273 121.051 20.4038 121.05 19.3197C121.051 18.2356 121.392 17.3665 122.075 16.6755C122.764 15.9847 123.587 15.6458 124.584 15.6439C125.58 15.6458 126.405 15.9847 127.092 16.6755C127.776 17.3665 128.117 18.2356 128.118 19.3197C128.117 20.4038 127.776 21.273 127.092 21.9639C126.405 22.6548 125.58 22.9936 124.584 22.9955C123.587 22.9936 122.764 22.6548 122.075 21.9639L121.96 22.0765ZM128.124 22.8805L128.009 22.7693C127.086 23.7096 125.958 24.1742 124.584 24.176C123.209 24.1741 122.08 23.7096 121.159 22.7693L121.155 22.7642L121.159 22.7693C120.239 21.8257 119.784 20.6878 119.783 19.3197C119.784 17.9516 120.239 16.8137 121.159 15.8702C122.08 14.9298 123.209 14.4646 124.584 14.4628C125.949 14.4646 127.075 14.9317 128.003 15.877C128.927 16.8249 129.384 17.961 129.386 19.3197C129.384 20.6878 128.928 21.8257 128.009 22.7693L128.124 22.8805L128.24 22.9917C129.215 21.9951 129.709 20.759 129.708 19.3197C129.709 17.8886 129.214 16.655 128.233 15.654C127.253 14.649 126.025 14.1409 124.584 14.1426C123.135 14.1409 121.903 14.6466 120.929 15.6477V15.647C119.951 16.6442 119.46 17.8804 119.461 19.3197C119.46 20.759 119.951 21.9951 120.929 22.9923L120.933 22.9969L120.929 22.9917C121.903 23.9927 123.135 24.4975 124.584 24.4962C126.031 24.4975 127.264 23.9927 128.24 22.9917L128.124 22.8805V22.8805ZM131.288 24.1217V14.5177H132.798L137.491 21.9888H137.544L137.491 20.138V14.5177H138.732V24.1215H137.437L132.528 16.2884H132.474L132.528 18.1398V24.1215H131.288" fill="#091E42"/>
<path d="M131.288 24.1223H131.449V14.6785H132.709L137.401 22.1496H137.709L137.652 20.1364V14.6786H138.571V23.9622H137.527L132.617 16.129H132.309L132.367 18.1431V23.9622H131.288L131.288 24.1223L131.288 24.2823H132.689V18.138L132.635 16.2848L132.474 16.2891V16.4492H132.528V16.2891L132.391 16.3742L137.348 24.2823H138.893V14.3584H137.33V20.1406L137.383 21.9939L137.544 21.9896V21.8295H137.491V21.9896L137.627 21.9046L132.887 14.3584H131.127V24.2823H131.288L131.288 24.1223ZM181.756 51.3331H184.759V31.3232H181.756L181.756 51.3331ZM208.804 38.5313L205.361 47.2065H205.258L201.686 38.5312H198.451L203.808 50.6565L200.754 57.4011H203.887L212.143 38.5312L208.804 38.5313ZM191.774 49.0604C190.789 49.0604 189.418 48.5714 189.418 47.361C189.418 45.8165 191.127 45.2244 192.601 45.2244C193.923 45.2244 194.542 45.5076 195.345 45.8942C195.112 47.7473 193.507 49.0604 191.774 49.0604ZM192.136 38.0935C189.962 38.0935 187.711 39.0463 186.779 41.1572L189.444 42.2639C190.014 41.1572 191.074 40.7964 192.188 40.7964C193.741 40.7964 195.319 41.7237 195.345 43.3712V43.577C194.801 43.268 193.638 42.8047 192.213 42.8047C189.341 42.8047 186.415 44.3747 186.415 47.3096C186.415 49.987 188.771 51.712 191.41 51.712C193.43 51.712 194.542 50.811 195.242 49.7557H195.345V51.3H198.243V43.6281C198.243 40.0762 195.578 38.0935 192.136 38.0935ZM173.578 40.967H169.307V34.1082H173.578C175.823 34.1082 177.097 35.957 177.097 37.5375C177.097 39.0882 175.823 40.967 173.578 40.967ZM173.501 31.3232H166.305V51.3331H169.307V43.752H173.501C176.829 43.752 180.1 41.3554 180.1 37.5375C180.1 33.7199 176.829 31.3232 173.501 31.3232ZM134.265 49.0641C132.19 49.0641 130.453 47.3365 130.453 44.9637C130.453 42.566 132.19 40.8121 134.265 40.8121C136.313 40.8121 137.92 42.5659 137.92 44.9637C137.92 47.3365 136.313 49.0641 134.265 49.0641ZM137.713 39.6517H137.609C136.935 38.8525 135.638 38.1304 134.005 38.1304C130.583 38.1304 127.446 41.1216 127.446 44.9637C127.446 48.7803 130.583 51.7458 134.005 51.7458C135.638 51.7458 136.935 51.0235 137.609 50.1989H137.713V51.1786C137.713 53.7835 136.313 55.1759 134.057 55.1759C132.216 55.1759 131.076 53.8603 130.608 52.7517L127.99 53.8347C128.742 55.6398 130.739 57.8576 134.057 57.8576C137.583 57.8576 140.565 55.7942 140.565 50.766V38.5431H137.713V39.6517ZM142.638 51.3331H145.646V31.3225H142.638V51.3331ZM150.079 44.7318C150.002 42.1013 152.128 40.7607 153.657 40.7607C154.851 40.7607 155.861 41.3535 156.198 42.2052L150.079 44.7318ZM159.413 42.4627C158.843 40.9408 157.105 38.1304 153.553 38.1304C150.027 38.1304 147.098 40.8896 147.098 44.9381C147.098 48.7547 150.002 51.7458 153.89 51.7458C157.028 51.7458 158.843 49.8374 159.595 48.7288L157.261 47.1813C156.484 48.3162 155.42 49.0641 153.89 49.0641C152.361 49.0641 151.272 48.3676 150.572 47.0013L159.724 43.2361L159.413 42.4627ZM86.4989 40.2193V43.1073H93.447C93.2396 44.7318 92.6951 45.9178 91.8653 46.7431C90.8545 47.7491 89.273 48.8577 86.4988 48.8577C82.2209 48.8577 78.8766 45.4282 78.8766 41.1733C78.8766 36.9186 82.2209 33.4886 86.4989 33.4886C88.8065 33.4886 90.4912 34.3913 91.7358 35.5517L93.784 33.5148C92.0471 31.8641 89.7394 30.6006 86.4989 30.6006C80.6393 30.6006 75.7134 35.3455 75.7134 41.1733C75.7134 47.0013 80.6393 51.7458 86.4989 51.7458C89.6621 51.7458 92.0471 50.7148 93.9135 48.7803C95.8321 46.8719 96.4287 44.1903 96.4287 42.0244C96.4287 41.3535 96.377 40.7351 96.2727 40.2193H86.4989ZM104.328 49.0641C102.253 49.0641 100.464 47.362 100.464 44.9381C100.464 42.4883 102.253 40.8121 104.328 40.8121C106.402 40.8121 108.191 42.4883 108.191 44.9381C108.191 47.3621 106.402 49.0641 104.328 49.0641ZM104.328 38.1304C100.542 38.1304 97.457 40.9926 97.457 44.9381C97.457 48.8577 100.542 51.7458 104.328 51.7458C108.113 51.7458 111.198 48.8577 111.198 44.9381C111.198 40.9926 108.113 38.1304 104.328 38.1304ZM119.316 49.0641C117.242 49.0641 115.453 47.362 115.453 44.9381C115.453 42.4883 117.242 40.8121 119.316 40.8121C121.39 40.8121 123.179 42.4883 123.179 44.9381C123.179 47.3621 121.389 49.0641 119.316 49.0641ZM119.316 38.1304C115.53 38.1304 112.445 40.9926 112.445 44.9381C112.445 48.8577 115.53 51.7458 119.316 51.7458C123.101 51.7458 126.186 48.8577 126.186 44.9381C126.186 40.9926 123.101 38.1304 119.316 38.1304Z" fill="#091E42"/>
<path d="M26.5768 15.4957C26.0367 15.9803 25.7144 16.7887 25.7144 17.8617V17.6191V53.0269V52.7937C25.7144 53.7846 25.9909 54.5499 26.4591 55.0427L26.5787 55.1565V55.157C26.9577 55.4972 27.4437 55.6778 28.0007 55.6773C28.545 55.6773 29.1573 55.5047 29.8036 55.1403L53.1628 41.9394L61.1865 37.4044C62.2055 36.8286 62.7776 36.0858 62.8732 35.3292V35.3261C62.7776 34.5677 62.2055 33.8255 61.1865 33.2496L53.1621 28.7153L29.8037 15.5144C29.156 15.1493 28.5432 14.9761 27.9975 14.9761C27.4412 14.9761 26.9558 15.1561 26.5769 15.4957H26.5768Z" fill="#00C1FF"/>
<path d="M26.5787 55.1567L26.4591 55.0429C25.9909 54.5502 25.7144 53.7848 25.7144 52.7939V53.0271V17.6281V17.8619C25.7144 16.7889 26.0367 15.9805 26.5768 15.4959L46.5156 35.327L26.5787 55.1567Z" fill="url(#paint0_linear_10524_248940)"/>
<path d="M53.1627 41.9399L46.5156 35.3274L53.1621 28.7159L61.1865 33.2502C62.2055 33.8262 62.7776 34.5683 62.8732 35.3268V35.3298C62.7776 36.0864 62.2055 36.8293 61.1865 37.405L53.1628 41.9399" fill="url(#paint1_linear_10524_248940)"/>
<path d="M28.0007 55.6777C27.4438 55.6782 26.9577 55.4975 26.5788 55.1574V55.1569L46.5156 35.3271L53.1628 41.9397L29.8036 55.1407C29.1573 55.5052 28.545 55.6777 28.0007 55.6777Z" fill="url(#paint2_linear_10524_248940)"/>
<path d="M46.5158 35.3271L26.5769 15.4961C26.9559 15.1565 27.4413 14.9765 27.9976 14.9765C28.5433 14.9765 29.1561 15.1496 29.8037 15.5148L53.1623 28.7157L46.5157 35.3271" fill="url(#paint3_linear_10524_248940)"/>
<path d="M28.0016 55.9121C27.4446 55.9121 26.9579 55.7314 26.5789 55.3913L26.5783 55.3919C26.5767 55.3903 26.575 55.3889 26.5733 55.3875L26.4696 55.2868C26.4664 55.2837 26.4633 55.28 26.4595 55.2763L26.579 55.1574C26.958 55.4975 27.444 55.6782 28.001 55.6776C28.5452 55.6776 29.1576 55.5051 29.8038 55.1406L53.163 41.9396L53.3127 42.0886L53.1611 42.1742L29.8038 55.3744C29.2148 55.7064 28.6546 55.8796 28.1486 55.9084C28.0996 55.9108 28.0506 55.912 28.0016 55.912" fill="url(#paint4_linear_10524_248940)"/>
<path d="M26.4592 55.2769C25.9909 54.7841 25.7144 54.0194 25.7144 53.0278V52.7946C25.7144 53.7855 25.9909 54.5508 26.4592 55.0436L26.5788 55.1574L26.4592 55.2769" fill="url(#paint5_linear_10524_248940)"/>
<path d="M53.3123 42.0888L53.1626 41.9399L61.1863 37.405C62.2053 36.8293 62.7774 36.0865 62.873 35.3298C62.873 35.6075 62.8107 35.8851 62.687 36.1553C62.4374 36.6998 61.9371 37.2144 61.1864 37.6389L53.3123 42.0889" fill="url(#paint6_linear_10524_248940)"/>
<path d="M62.873 35.3267C62.7774 34.5682 62.2053 33.8261 61.1863 33.2501L53.1619 28.7158L53.3115 28.5669H53.3122L61.1863 33.0169C62.3098 33.6522 62.8723 34.4893 62.873 35.3267" fill="url(#paint7_linear_10524_248940)"/>
<path d="M25.7144 17.8623V17.6177C25.7144 17.5295 25.7167 17.4433 25.7213 17.3595V17.3557C25.7213 17.3546 25.7213 17.3534 25.7217 17.3521V17.3426C25.7702 16.4891 26.0368 15.8233 26.4592 15.3788L26.5769 15.4962C26.0368 15.981 25.7144 16.7893 25.7144 17.8623Z" fill="url(#paint8_linear_10524_248940)"/>
<path d="M53.1619 28.7163L29.8034 15.5153C29.1558 15.1502 28.543 14.977 27.9973 14.977C27.4409 14.977 26.9556 15.1571 26.5766 15.4966L26.459 15.3791C26.4957 15.3404 26.5339 15.3031 26.5734 15.2672C26.5747 15.2659 26.5766 15.2646 26.5779 15.2634C26.9538 14.9265 27.4341 14.7464 27.9854 14.7432H27.9973C28.543 14.7432 29.1558 14.9164 29.8034 15.2816L53.3122 28.5669L53.3115 28.5674L53.1619 28.7163" fill="url(#paint9_linear_10524_248940)"/>
<defs>
<linearGradient id="paint0_linear_10524_248940" x1="38.4565" y1="17.254" x2="21.3943" y2="34.4638" gradientUnits="userSpaceOnUse">
<stop stop-color="#00A0FF"/>
<stop offset="0.00657" stop-color="#00A1FF"/>
<stop offset="0.2601" stop-color="#00BEFF"/>
<stop offset="0.5122" stop-color="#00D2FF"/>
<stop offset="0.7604" stop-color="#00DFFF"/>
<stop offset="1" stop-color="#00E3FF"/>
</linearGradient>
<linearGradient id="paint1_linear_10524_248940" x1="64.1147" y1="35.2131" x2="25.1747" y2="35.2131" gradientUnits="userSpaceOnUse">
<stop stop-color="#FFE000"/>
<stop offset="0.4087" stop-color="#FFBD00"/>
<stop offset="0.7754" stop-color="#FFA500"/>
<stop offset="1" stop-color="#FF9C00"/>
</linearGradient>
<linearGradient id="paint2_linear_10524_248940" x1="49.6337" y1="41.6141" x2="20.7191" y2="70.5659" gradientUnits="userSpaceOnUse">
<stop stop-color="#FF3A44"/>
<stop offset="1" stop-color="#C31162"/>
</linearGradient>
<linearGradient id="paint3_linear_10524_248940" x1="21.4381" y1="12.556" x2="34.3246" y2="25.4789" gradientUnits="userSpaceOnUse">
<stop stop-color="#32A071"/>
<stop offset="0.0685" stop-color="#2DA771"/>
<stop offset="0.4762" stop-color="#15CF74"/>
<stop offset="0.8009" stop-color="#06E775"/>
<stop offset="1" stop-color="#00F076"/>
</linearGradient>
<linearGradient id="paint4_linear_10524_248940" x1="49.6195" y1="46.2009" x2="26.4643" y2="69.5565" gradientUnits="userSpaceOnUse">
<stop stop-color="#CC2E36"/>
<stop offset="1" stop-color="#9C0E4E"/>
</linearGradient>
<linearGradient id="paint5_linear_10524_248940" x1="28.3709" y1="17.2545" x2="13.3393" y2="32.4186" gradientUnits="userSpaceOnUse">
<stop stop-color="#008DE0"/>
<stop offset="0.00657" stop-color="#008DE0"/>
<stop offset="0.2601" stop-color="#00A7E0"/>
<stop offset="0.5122" stop-color="#00B8E0"/>
<stop offset="0.7604" stop-color="#00C4E0"/>
<stop offset="1" stop-color="#00C7E0"/>
</linearGradient>
<linearGradient id="paint6_linear_10524_248940" x1="64.1146" y1="35.3284" x2="25.1746" y2="35.3284" gradientUnits="userSpaceOnUse">
<stop stop-color="#E0C500"/>
<stop offset="0.4087" stop-color="#E0A600"/>
<stop offset="0.7754" stop-color="#E09100"/>
<stop offset="1" stop-color="#E08900"/>
</linearGradient>
<linearGradient id="paint7_linear_10524_248940" x1="64.1146" y1="35.3282" x2="25.1746" y2="35.3282" gradientUnits="userSpaceOnUse">
<stop stop-color="#FFE840"/>
<stop offset="0.4087" stop-color="#FFCE40"/>
<stop offset="0.7754" stop-color="#FFBC40"/>
<stop offset="1" stop-color="#FFB540"/>
</linearGradient>
<linearGradient id="paint8_linear_10524_248940" x1="28.3544" y1="17.2816" x2="13.8719" y2="31.2587" gradientUnits="userSpaceOnUse">
<stop stop-color="#40B8FF"/>
<stop offset="0.00657" stop-color="#40B9FF"/>
<stop offset="0.2601" stop-color="#40CEFF"/>
<stop offset="0.5122" stop-color="#40DDFF"/>
<stop offset="0.7604" stop-color="#40E7FF"/>
<stop offset="1" stop-color="#40EAFF"/>
</linearGradient>
<linearGradient id="paint9_linear_10524_248940" x1="21.4087" y1="16.7505" x2="31.7485" y2="27.1799" gradientUnits="userSpaceOnUse">
<stop stop-color="#65B895"/>
<stop offset="0.0685" stop-color="#62BD95"/>
<stop offset="0.4762" stop-color="#50DB97"/>
<stop offset="0.8009" stop-color="#44ED98"/>
<stop offset="1" stop-color="#40F498"/>
</linearGradient>
</defs>
</svg>
