<svg width="32" height="29" viewBox="0 0 32 29" fill="none" xmlns="http://www.w3.org/2000/svg">
              <path d="M5.18916 0.00273935H26.9317C27.1595 0.0121996 27.3831 0.0685469 27.5897 0.16847C27.7963 0.268394 27.982 0.409954 28.1354 0.584852C28.3015 0.78962 28.4355 1.02018 28.5329 1.26798C29.6039 3.54198 30.6724 5.81774 31.7389 8.09548C31.8838 8.44258 31.9722 8.81234 32 9.1895V9.23162C31.9287 10.0155 31.6476 10.7628 31.1885 11.3899C30.6617 12.1126 29.9182 12.6334 29.075 12.8698C29.2427 14.5304 29.2873 16.1994 29.3008 17.8698C29.3355 20.1096 29.2217 22.3492 28.9601 24.5727C28.9321 24.9804 28.8643 25.3839 28.7574 25.7773C28.5852 26.3501 28.2884 26.8745 27.8898 27.3093C27.4912 27.7441 27.0015 28.078 26.4586 28.2852C26.0619 28.4264 25.6471 28.5062 25.2279 28.5221C22.4375 28.8345 19.6331 28.9913 16.8265 28.9919C13.4726 29.0391 10.1189 28.8789 6.78339 28.5122C5.83705 28.4713 4.94098 28.0592 4.27632 27.3593C3.70859 26.7444 3.34318 25.959 3.23243 25.1154C3.17969 24.6315 3.04717 24.1574 2.99308 23.6735C2.82902 22.2224 2.74625 20.7628 2.74547 19.3018C2.69301 17.1595 2.77127 15.016 2.97954 12.8839C2.22041 12.6883 1.53401 12.264 1.00664 11.6649C0.510554 11.0987 0.174201 10.4019 0.0343808 9.65074C-0.0594422 9.06182 0.0400605 8.45746 0.316979 7.9342C1.47585 5.60456 2.62657 3.26516 3.78409 0.93412C3.92351 0.668027 4.12552 0.442735 4.3714 0.279414C4.61729 0.116093 4.89913 0.0200282 5.19048 0L5.18916 0.00273935ZM1.91386 8.9118C1.85269 9.02976 1.82896 9.16462 1.84618 9.29737C1.92554 9.70027 2.11186 10.0721 2.38397 10.3712C2.65608 10.6703 3.0034 10.8848 3.3866 10.9903C3.69104 11.0703 4.00891 11.0779 4.3166 11.0125C4.62429 10.9472 4.91379 10.8106 5.16341 10.6129C5.42598 10.4042 5.63804 10.1352 5.78308 9.82675C5.92811 9.51834 6.00204 9.17925 5.99899 8.83613C6.61426 8.83613 7.2282 8.83613 7.84347 8.83613C7.84471 9.21096 7.93446 9.5796 8.10461 9.9103C8.25116 10.19 8.45483 10.4331 8.7015 10.6225C8.94816 10.812 9.23174 10.9433 9.53245 11.0071C9.80995 11.0651 10.096 11.0637 10.373 11.003C10.6499 10.9422 10.9118 10.8233 11.1429 10.6537C11.4235 10.4481 11.6516 10.1746 11.8071 9.85688C11.9626 9.53911 12.0412 9.18663 12.0356 8.83031C12.6495 8.83031 13.2648 8.83031 13.88 8.83031C13.8819 9.24527 13.9919 9.6521 14.199 10.0072C14.3512 10.2648 14.5532 10.487 14.7922 10.6599C15.0312 10.8327 15.3021 10.9524 15.5878 11.0115C15.8751 11.069 16.1708 11.0629 16.4558 10.9941C16.7407 10.9252 17.0083 10.7949 17.2415 10.6116C17.5056 10.4031 17.719 10.1336 17.8648 9.82435C18.0106 9.51509 18.0849 9.17454 18.0814 8.83031C18.6953 8.83031 19.3063 8.83031 19.9202 8.83031C19.9236 9.14387 19.9868 9.45388 20.1058 9.74217C20.2434 10.0673 20.4553 10.3527 20.7231 10.5739C20.991 10.7951 21.3068 10.9453 21.6432 11.0115C21.9825 11.0756 22.3317 11.0514 22.6597 10.941C22.9878 10.8306 23.2844 10.6373 23.5227 10.3787C23.9051 9.96252 24.1204 9.41105 24.1246 8.83613C24.7398 8.83613 25.3495 8.83613 25.9647 8.83613C25.9624 9.21894 26.0559 9.59587 26.2358 9.93016C26.4157 10.2644 26.6758 10.5445 26.9911 10.7434C27.2805 10.9251 27.6085 11.0309 27.9462 11.0512C28.284 11.0715 28.6214 11.0057 28.9291 10.8598C29.2332 10.7138 29.4999 10.4951 29.7072 10.2219C29.9145 9.94867 30.0565 9.62878 30.1218 9.28778C30.1381 9.07529 30.0837 8.86312 29.9677 8.68718C28.9062 6.43608 27.8539 4.18507 26.7924 1.93398H5.36215C4.21274 4.25941 3.06285 6.58336 1.91254 8.90598L1.91386 8.9118ZM4.8402 12.878C4.70782 13.9116 4.63085 14.9523 4.61009 15.9947C4.56682 17.6091 4.56684 19.2206 4.62363 20.8321C4.64394 22.0019 4.76276 23.1674 4.9782 24.3159C5.01077 24.6451 5.07274 24.9707 5.16341 25.288C5.27996 25.6034 5.47239 25.8827 5.72233 26.0992C5.97227 26.3157 6.27128 26.462 6.59125 26.5248C6.79544 26.5571 6.99703 26.5629 7.20663 26.5895C8.98078 26.8083 10.7628 26.915 12.5397 26.9809C12.5397 25.1955 12.5397 23.4085 12.5397 21.6231C12.5527 21.1349 12.7053 20.6616 12.9778 20.2633C13.2503 19.8651 13.6306 19.5599 14.0705 19.3861C14.4441 19.2535 14.8399 19.2009 15.2336 19.2316H17.4891C17.8394 19.2104 18.1902 19.2582 18.5234 19.372C18.9729 19.5385 19.3638 19.8418 19.6446 20.2421C19.9254 20.6424 20.0832 21.1211 20.0975 21.6159C20.0975 23.3929 20.0975 25.1742 20.0975 26.9457C21.7121 26.8797 23.3211 26.7733 24.9222 26.5741C25.3103 26.5758 25.6948 26.493 26.0503 26.3314C26.3336 26.1813 26.5761 25.9601 26.7561 25.6879C26.9361 25.4158 27.0477 25.1012 27.0806 24.773C27.1374 24.212 27.2157 23.651 27.2711 23.09C27.3766 21.9315 27.4254 20.7704 27.4484 19.6062C27.505 17.3647 27.4309 15.1216 27.2265 12.8893C27.0936 12.4942 26.8501 12.1492 26.527 11.8984C26.2039 11.6476 25.8158 11.5022 25.4128 11.4813C25.0097 11.4604 24.6098 11.5649 24.2642 11.7809C23.9186 11.997 23.6432 12.3151 23.4729 12.6945C22.7023 13.0136 21.8536 13.0702 21.05 12.8561C20.2463 12.6421 19.5291 12.1683 19.0021 11.5036C18.6288 11.9679 18.1622 12.3422 17.635 12.6003C16.8494 12.9827 15.9635 13.0825 15.1171 12.8839C14.2707 12.6852 13.512 12.1995 12.9616 11.5036C12.5608 12.0049 12.0512 12.4005 11.4743 12.6579C10.6628 13.0194 9.757 13.0852 8.90486 12.8445C8.72293 12.4426 8.434 12.1033 8.07192 11.8665C7.70985 11.6297 7.29 11.5054 6.86197 11.5084C6.43393 11.5113 6.01564 11.6412 5.65663 11.883C5.29763 12.1247 5.01267 12.4682 4.83591 12.8726L4.8402 12.878ZM14.6265 21.0256C14.4976 21.0834 14.3882 21.1799 14.3125 21.3026C14.2369 21.4253 14.1981 21.5686 14.2016 21.7142V27.0299H18.4422V21.7101C18.4458 21.5687 18.4094 21.4294 18.3372 21.3094C18.2651 21.1895 18.1608 21.0943 18.0368 21.0355C17.8757 20.974 17.7031 20.9513 17.5324 20.9694H15.0983C14.9388 20.9592 14.7791 20.9836 14.6291 21.041L14.6265 21.0256Z" fill="#5E6C84"></path>
            </svg>