<svg width="24" height="24" viewBox="0 0 24 24" fill="none" xmlns="http://www.w3.org/2000/svg">
            <path fill-rule="evenodd" clip-rule="evenodd" d="M12 8.75C11.035 8.75 10.25 9.535 10.25 10.501C10.25 11.466 11.035 12.25 12 12.25C12.965 12.25 13.75 11.466 13.75 10.501C13.75 9.535 12.965 8.75 12 8.75ZM12 13.75C10.208 13.75 8.75 12.293 8.75 10.501C8.75 8.708 10.208 7.25 12 7.25C13.792 7.25 15.25 8.708 15.25 10.501C15.25 12.293 13.792 13.75 12 13.75Z" fill="#5E6C84"></path>
            <mask id="mask0_14687_232151" style="mask-type: alpha" maskUnits="userSpaceOnUse" x="3" y="2" width="18" height="20">
              <path fill-rule="evenodd" clip-rule="evenodd" d="M3.75 2.25H20.2495V21.75H3.75V2.25Z" fill="white"></path>
            </mask>
            <g mask="url(#mask0_14687_232151)">
              <path fill-rule="evenodd" clip-rule="evenodd" d="M12 3.75C8.278 3.75 5.25 6.807 5.25 10.563C5.25 15.342 10.874 19.998 12 20.246C13.126 19.997 18.75 15.341 18.75 10.563C18.75 6.807 15.722 3.75 12 3.75ZM12 21.75C10.206 21.75 3.75 16.198 3.75 10.563C3.75 5.979 7.451 2.25 12 2.25C16.549 2.25 20.25 5.979 20.25 10.563C20.25 16.198 13.794 21.75 12 21.75Z" fill="#5E6C84"></path>
            </g>
          </svg>