<svg width="177" height="65" viewBox="0 0 177 65" fill="none" xmlns="http://www.w3.org/2000/svg">
              <path d="M176.997 57.3338C176.954 58.1996 177.014 59.0816 176.828 59.9284C176.43 61.7359 175.335 63.0576 173.739 63.9722C172.694 64.572 171.556 64.7919 170.35 64.7892C164.074 64.7756 157.798 64.7783 151.522 64.7756C140.923 64.7729 130.325 64.7512 119.726 64.7783C117.115 64.7837 114.261 62.9436 113.516 59.9664C113.431 59.6353 113.448 59.2988 113.448 58.9622C113.445 51.1134 113.431 43.2645 113.456 35.4156C113.464 33.1956 114.678 31.6351 116.498 30.4979C117.56 29.8357 118.741 29.5751 119.994 29.5941C120.87 29.6077 120.979 29.4856 120.731 28.6551C120.373 27.4528 120.193 26.2234 120.068 24.9831C119.978 24.0956 120.177 23.238 120.376 22.3803C121.05 19.4764 122.78 17.468 125.52 16.282C127.471 15.4352 129.512 15.362 131.583 15.5004C132.074 15.533 132.344 15.324 132.333 14.8382C132.268 12.3929 133.152 10.3492 134.885 8.61771C136.126 7.3747 137.578 6.41666 139.013 5.43148C140.35 4.51415 141.676 3.57782 142.926 2.54108C143.753 1.85444 144.427 1.02939 145.06 0.171768C145.164 0.0333549 145.257 -0.118629 145.404 0.141914C146.444 1.98471 148.165 3.1273 149.811 4.33503C151.514 5.58075 153.325 6.67992 154.922 8.06948C155.926 8.94338 156.772 9.95299 157.326 11.1634C157.814 12.2246 158.087 13.3482 158.019 14.5396C157.97 15.4 158.196 15.5492 159.053 15.4895C161.337 15.3294 163.572 15.5275 165.627 16.6403C167.976 17.9158 169.452 19.8373 170.034 22.4726C170.287 23.6261 170.418 24.7714 170.241 25.9221C170.094 26.8584 169.957 27.8083 169.641 28.7148C169.613 28.7962 169.581 28.8776 169.559 28.9618C169.458 29.3716 169.624 29.5996 170.047 29.6023C170.626 29.6077 171.212 29.5887 171.774 29.7108C174.203 30.2346 175.868 31.6595 176.719 33.9827C176.948 34.6096 176.926 35.2854 176.956 35.9449C176.967 36.1728 176.94 36.4008 177 36.6261C177 37.386 177 38.1459 177 38.9058C176.943 39.1392 176.962 39.3808 176.962 39.6169C176.984 45.1344 176.913 50.6493 177 56.1668C176.997 56.5522 176.997 56.943 176.997 57.3338ZM141.777 32.7776C141.889 33.1902 141.968 33.5457 142.08 33.8877C142.43 34.9434 143.03 35.7657 144.19 36.029C144.487 36.0969 144.471 36.3004 144.438 36.5012C144.299 37.348 144.473 38.1432 144.869 38.8868C145.65 40.3524 147.183 41.2263 149 40.119C149.805 39.6278 150.499 39.0035 151.224 38.4173C152.493 37.3914 153.738 36.3357 155.186 35.5568C155.629 35.3179 155.721 35.3315 156.008 35.7467C156.453 36.3927 156.987 36.9355 157.719 37.2639C158.739 37.7252 159.782 37.3561 160.292 36.3683C160.78 35.4238 160.799 34.4549 160.442 33.4751C160.128 32.6175 159.566 32.0096 158.627 31.8196C158.131 31.7192 157.661 31.8685 157.181 31.9499C157.001 31.9797 156.742 32.1806 156.66 31.9879C156.586 31.8142 156.889 31.7138 157.056 31.6323C158.3 31.0081 159.607 30.5115 160.84 29.8682C161.187 29.6864 161.539 29.6783 161.918 29.7651C162.374 29.871 162.835 29.9524 163.296 30.0148C163.888 30.0962 164.486 30.1206 165.081 30.0229C166.23 29.8357 166.819 29.0812 167.122 28.0336C167.619 26.3156 167.046 24.8338 165.515 23.9056C165.114 23.6614 164.718 23.4171 164.314 23.1783C164.172 23.0941 164.126 22.9856 164.153 22.8282C164.249 22.2799 164.148 22.0438 163.654 21.7778C163.048 21.4549 162.437 21.1482 161.817 20.8469C161.424 20.657 161.078 20.771 160.832 21.1292C160.647 21.3979 160.581 21.71 160.559 22.0221C160.524 22.5025 160.347 22.8879 160.074 23.2922C159.198 24.5895 158.616 25.9818 159.004 27.5994C159.059 27.8273 158.971 27.963 158.747 28.0472C158.352 28.1964 157.962 28.3728 157.569 28.533C155.768 29.2712 154.826 30.601 154.799 32.547C154.796 32.7369 154.72 32.8536 154.567 32.9405C154.433 33.0165 154.3 33.087 154.169 33.163C152.237 34.2703 150.602 35.7576 148.932 37.196C148.305 37.7361 147.625 38.0808 146.771 38.0211C146.34 37.9912 146.072 37.7958 146.023 37.3643C145.991 37.0739 146.004 36.7808 146.002 36.4877C145.999 36.2244 146.105 36.0779 146.392 36.029C147.265 35.8824 148.059 35.5296 148.801 35.0601C150.04 34.2812 150.916 33.2417 151.219 31.7735C151.44 30.7069 151.298 29.6728 150.927 28.6768C150.518 27.5831 149.904 26.6115 148.867 25.9845C147.685 25.268 146.864 25.3549 145.95 26.3319C145.341 26.9833 144.962 27.7758 144.82 28.6741C144.645 29.795 145.352 30.8643 146.457 31.1411C147.093 31.2985 147.737 31.247 148.378 31.2524C148.657 31.2551 148.919 31.3067 149.172 31.4152C149.29 31.4668 149.429 31.5021 149.437 31.6676C149.442 31.8169 149.317 31.8685 149.216 31.9227C147.977 32.6121 146.684 33.1196 145.232 33.1223C144.334 33.125 144.067 33.1712 143.753 31.9282C143.742 31.8875 143.737 31.844 143.728 31.8006C143.527 30.6824 143.333 29.5616 143.12 28.4461C142.82 26.8611 142.522 25.2735 141.952 23.7536C141.54 22.6545 141.03 21.6014 140.334 20.6461C140.157 20.4018 139.927 20.2037 139.6 20.2499C139.229 20.3014 139.057 20.5755 138.956 20.9067C138.678 21.8131 138.601 22.706 139.144 23.5582C139.196 23.6396 139.226 23.7346 139.264 23.8242C140.031 25.5666 140.719 27.3307 140.948 29.2359C141.03 29.909 140.964 30.5087 140.468 31.0733C139.341 32.3461 138.025 33.3584 136.538 34.1563C135.515 34.7046 134.423 35.0085 133.245 34.9543C132.726 34.9298 132.47 34.7019 132.47 34.1943C132.464 32.7776 132.734 31.4179 133.37 30.1396C133.534 29.8113 133.575 29.8031 133.864 30.0447C134.41 30.4979 134.991 30.8968 135.64 31.1954C136.566 31.6188 137.231 31.4641 137.755 30.7042C138.74 29.2793 138.729 27.4582 137.723 26.0415C137.25 25.3739 136.503 25.0889 135.72 25.3087C135.185 25.458 134.732 25.7566 134.339 26.1474C134.14 26.3455 133.96 26.568 133.673 26.6576C133.31 26.7716 133.059 27.0186 132.898 27.3578C132.666 27.8463 132.423 28.3321 132.202 28.8288C131.908 29.4964 131.493 30.0718 130.933 30.5413C128.901 32.2511 126.578 33.4941 124.193 34.6177C122.019 35.6436 119.776 36.5202 117.568 37.4756C117.118 37.671 116.659 37.8528 116.258 38.1378C115.805 38.4553 115.865 38.9221 116.367 39.1447C116.588 39.2424 116.809 39.2261 117.039 39.1881C118.791 38.8814 120.504 38.42 122.231 38.0102C122.952 37.8392 123.713 37.7741 124.382 37.4593C126.562 36.4307 128.658 35.2555 130.579 33.7845C130.666 33.7194 130.751 33.5566 130.868 33.6353C130.958 33.695 130.906 33.8551 130.89 33.9718C130.797 34.6449 130.849 35.3044 131.026 35.9639C131.332 37.0983 132.175 37.8311 133.357 37.9234C134.074 37.9776 134.765 37.7822 135.43 37.5488C137.335 36.8812 138.953 35.7576 140.399 34.3762C140.896 33.9039 141.341 33.391 141.777 32.7776ZM153.244 48.6843C153.388 48.5893 153.448 48.5459 153.511 48.5106C154.182 48.1497 154.843 47.7697 155.525 47.4305C156.889 46.7547 158.281 46.1305 159.692 45.5524C160.336 45.2891 160.756 44.8576 160.947 44.1981C160.999 44.0217 161.056 43.8453 161.102 43.6662C161.266 43.0202 161.023 42.6023 160.371 42.4313C159.918 42.3119 159.449 42.2793 158.985 42.2413C157.784 42.1382 156.581 42.0513 155.377 41.9509C153.882 41.8261 152.387 41.7012 150.883 41.7012C150.046 41.7012 149.235 41.8749 148.517 42.3363C147.33 43.0989 146.629 44.7898 148.037 46.1576C148.673 46.7737 149.404 47.2649 150.067 47.8457C150.408 48.147 150.408 48.1877 150.119 48.5215C149.977 48.6843 149.835 48.8526 149.71 49.0263C149.601 49.1756 149.47 49.2434 149.284 49.2814C148.793 49.3818 148.294 49.4253 147.8 49.485C145.355 49.7916 142.907 49.9328 140.443 49.7211C138.746 49.5745 137.482 48.7929 136.667 47.3029C136.568 47.1238 136.484 46.9365 136.323 46.7927C136.012 46.5131 135.703 46.5104 135.398 46.7981C135.234 46.9528 135.128 47.1374 135.073 47.3518C135.002 47.6232 134.953 47.9027 134.874 48.1714C134.765 48.5486 134.846 48.8906 135.002 49.238C135.414 50.1445 135.864 51.0374 136.028 52.0361C136.102 52.4812 136.009 52.8503 135.657 53.1461C135.398 53.3605 135.149 53.5912 134.876 53.7866C133.329 54.9048 131.657 55.8248 129.951 56.6689C127.727 57.7708 125.41 58.6718 123.132 59.6516C122.493 59.9257 121.841 60.1781 121.244 60.539C120.998 60.6883 120.864 60.9081 120.941 61.1958C121.012 61.4699 121.238 61.5866 121.5 61.6274C121.716 61.6599 121.934 61.6301 122.15 61.5866C124.054 61.2148 125.929 60.7236 127.817 60.2812C128.357 60.1537 128.92 60.0912 129.422 59.847C131.58 58.7967 133.681 57.6486 135.572 56.1614C136.29 55.5969 137.002 55.0161 137.406 54.1612C137.673 53.5967 137.785 52.9914 137.856 52.3754C137.897 52.0253 137.941 52.009 138.268 52.1365C138.492 52.2234 138.716 52.3102 138.945 52.3754C140.73 52.8666 142.539 52.9697 144.378 52.7716C145.663 52.6332 146.948 52.4975 148.228 52.3157C148.498 52.2777 148.602 52.3075 148.55 52.6278C148.482 53.043 148.457 53.4691 148.479 53.8898C148.517 54.6904 148.613 55.4829 148.839 56.2564C149.265 57.7056 150.035 58.9107 151.391 59.657C153.074 60.5825 154.824 60.8702 156.652 60.0668C157.964 59.4887 159.072 58.642 159.937 57.5075C160.669 56.5468 161.312 55.5317 161.643 54.3484C161.926 53.328 162.049 52.2885 162.041 51.2355C162.038 50.7823 162.03 50.329 161.842 49.8948C161.31 48.6518 159.954 47.9516 158.502 48.0167C157.46 48.0628 156.431 48.2474 155.397 48.3831C154.709 48.4754 154.027 48.5758 153.244 48.6843ZM119.516 52.2804C119.756 52.2397 120.016 52.2044 120.272 52.1528C121.97 51.8109 123.645 51.3766 125.331 50.9777C125.975 50.8257 126.647 50.747 127.25 50.4566C129.351 49.4388 131.381 48.3017 133.236 46.8823C134.112 46.2119 134.926 45.4764 135.433 44.4695C135.654 44.0353 135.886 43.6037 136.091 43.1614C136.214 42.8981 136.325 42.8791 136.546 43.0691C137.109 43.5549 137.723 43.962 138.405 44.2687C139.174 44.6161 139.848 44.5455 140.279 44C141.515 42.4394 141.518 40.5668 140.369 39.0171C139.906 38.3929 139.223 38.0971 138.402 38.3685C137.916 38.5286 137.496 38.7864 137.133 39.1447C136.879 39.3943 136.636 39.6495 136.274 39.7689C135.962 39.8693 135.758 40.1271 135.613 40.4175C135.436 40.7758 135.248 41.134 135.097 41.5031C134.691 42.5154 134.05 43.3269 133.179 43.9973C131.605 45.2131 129.886 46.1929 128.117 47.0885C125.555 48.3885 122.862 49.4035 120.234 50.5597C119.797 50.7524 119.353 50.9424 118.96 51.2165C118.771 51.3495 118.632 51.5367 118.698 51.7973C118.763 52.0605 118.954 52.1881 119.205 52.2451C119.301 52.2668 119.399 52.2668 119.516 52.2804ZM166.17 41.438C166.11 40.3361 166.055 39.2966 165.998 38.2572C165.91 36.6641 165.684 35.0927 165.25 33.5538C165.155 33.2173 165.015 32.8971 164.808 32.6148C164.5 32.1996 163.987 32.1779 163.719 32.6121C163.337 33.2363 163.056 33.9039 163.288 34.672C163.782 36.3113 163.946 37.9994 164.019 39.6983C164.069 40.8545 164.12 42.0106 164.15 43.1695C164.202 45.224 164.262 47.2785 164.412 49.3303C164.489 50.348 164.633 51.3468 165.122 52.2722C165.676 53.3253 166.604 53.7866 167.717 53.7839C168.732 53.7812 169.466 53.1977 169.908 52.2777C170.533 50.9777 170.563 49.6397 170.102 48.299C169.938 47.824 169.717 47.3518 169.332 46.9908C168.999 46.676 168.664 46.6868 168.361 47.0098C167.883 47.5173 167.728 48.5866 168.036 49.2C168.203 49.5284 168.435 49.8215 168.557 50.1743C168.672 50.5027 168.576 50.6656 168.238 50.7415C167.228 50.9641 166.664 50.5923 166.481 49.5854C166.47 49.5202 166.459 49.4578 166.453 49.3927C166.322 47.7616 166.328 46.1278 166.262 44.4939C166.216 43.4545 166.197 42.415 166.17 41.438ZM141.174 10.238C141.21 10.8622 141.112 11.6248 141.234 12.3793C141.586 14.5776 143.78 16.0757 145.996 15.6307C148.212 15.1856 149.642 12.9981 149.131 10.8377C148.498 8.15633 145.45 6.88347 143.093 8.32459C142.885 8.45215 142.763 8.43858 142.588 8.29474C142.378 8.12376 142.149 7.97178 141.917 7.83065C141.513 7.58368 141.18 7.77365 141.177 8.25132C141.172 8.87011 141.174 9.48618 141.174 10.238ZM133.275 21.653C132.985 21.1048 132.767 20.6244 132.363 20.2553C131.643 19.5985 131.094 19.6365 130.636 20.4914C130.148 21.406 129.416 22.0574 128.57 22.611C127.271 23.4659 125.953 24.291 124.605 25.0672C124.444 25.1595 124.292 25.2626 124.188 25.4227C124.038 25.6588 124.128 25.8977 124.395 25.9845C124.535 26.0307 124.676 26.0225 124.813 25.9737C125.983 25.5584 127.157 25.1568 128.216 24.4891C129.152 23.8975 130.027 23.238 130.614 22.2799C130.767 22.0302 130.903 21.9624 131.16 22.1252C131.277 22.1985 131.425 22.2392 131.569 22.2202C131.839 22.1822 131.962 22.3234 132.052 22.5513C132.287 23.1457 132.538 23.7346 132.666 24.3643C132.718 24.6167 132.811 24.8582 133.114 24.8962C133.411 24.9342 133.569 24.7252 133.7 24.5081C133.878 24.2177 133.954 23.8866 134.031 23.5609C134.189 22.8879 134.276 22.1958 134.508 21.539C134.625 21.2052 134.702 21.1699 134.994 21.3653C135.256 21.539 135.518 21.5743 135.733 21.3409C135.965 21.0885 136.093 20.7682 136.025 20.4154C135.924 19.8835 135.452 19.3515 134.997 19.3081C134.443 19.2565 134.134 19.6419 133.859 20.0463C133.829 20.0897 133.812 20.144 133.785 20.1902C133.52 20.6135 133.447 21.1048 133.275 21.653ZM152.343 22.9584C152.488 22.9557 152.621 22.9069 152.752 22.8553C155.664 21.7018 158.578 20.5511 161.52 19.4764C161.921 19.3298 162.259 19.1208 162.445 18.711C162.554 18.4722 162.633 18.2334 162.439 18.0135C162.248 17.7964 161.997 17.8181 161.746 17.9104C161.206 18.1085 160.663 18.3039 160.123 18.5021C157.705 19.395 155.29 20.296 152.867 21.1753C152.28 21.3897 152.021 21.824 151.893 22.3749C151.819 22.6897 152.035 22.9503 152.343 22.9584ZM154.469 25.8787C154.341 25.629 154.251 25.458 154.163 25.287C153.964 24.8935 153.694 24.557 153.325 24.3073C152.681 23.8676 152.269 23.9517 151.863 24.6058C151.773 24.7524 151.691 24.9071 151.617 25.0645C151.533 25.2382 151.514 25.4282 151.601 25.5991C151.846 26.0822 152.226 26.4133 152.788 26.4405C153.025 26.454 153.143 26.5382 153.227 26.7417C153.478 27.3524 153.738 27.9603 153.866 28.6144C153.915 28.8695 154.051 29.0758 154.316 29.111C154.581 29.1463 154.755 28.9672 154.878 28.7447C155.02 28.4868 155.116 28.2127 155.189 27.9277C155.375 27.214 155.446 26.4758 155.702 25.781C155.833 25.4254 155.89 25.3956 156.204 25.6046C156.455 25.7728 156.69 25.781 156.919 25.5829C157.35 25.2083 157.323 24.4891 156.862 23.9355C156.458 23.4524 155.937 23.4008 155.454 23.7943C155.257 23.9545 155.121 24.1607 154.993 24.3778C154.736 24.8148 154.643 25.306 154.469 25.8787ZM169.982 41.3159C169.96 41.134 169.886 40.9413 169.733 40.7948C169.387 40.4637 169.018 40.1597 168.604 39.9154C168.257 39.7092 167.965 39.7635 167.728 40.0973C167.542 40.3632 167.392 40.6536 167.231 40.9332C166.969 41.3918 167.026 41.6253 167.441 41.9672C168.265 42.643 168.216 42.3879 167.72 43.3134C167.537 43.6526 167.583 43.9267 167.886 44.1791C168.227 44.4641 168.574 44.7436 168.931 45.0096C169.3 45.2837 169.597 45.2321 169.883 44.8658C169.963 44.7626 170.039 44.6568 170.107 44.5455C170.732 43.544 170.708 43.3731 169.774 42.6484C169.548 42.472 169.504 42.32 169.66 42.0785C169.804 41.8559 169.965 41.6307 169.982 41.3159ZM148.859 22.5106C148.837 22.2636 148.766 22.0818 148.629 21.9597C148.223 21.596 147.767 21.2975 147.284 21.0478C147.038 20.9202 146.815 21.0071 146.629 21.1862C146.545 21.2676 146.487 21.3789 146.43 21.482C146.25 21.8023 146.206 21.8131 145.914 21.6123C145.718 21.4766 145.519 21.3436 145.311 21.2242C144.899 20.9881 144.588 21.0695 144.353 21.482C144.179 21.7941 144.026 22.1198 143.87 22.4401C143.731 22.725 143.81 22.9964 144.04 23.1728C144.46 23.4958 144.913 23.7808 145.358 24.0739C145.598 24.2313 145.813 24.1472 146.007 23.9735C146.124 23.8703 146.209 23.7428 146.269 23.6044C146.384 23.3411 146.542 23.3438 146.757 23.4958C146.995 23.6668 147.246 23.8215 147.494 23.9762C147.655 24.0766 147.838 24.0929 147.988 23.9762C148.485 23.5881 148.687 23.029 148.859 22.5106ZM142.932 45.5877C142.929 46.2309 143.035 46.6733 143.215 46.9474C143.619 47.5662 144.37 47.6313 144.845 47.0804C145.202 46.6624 145.36 46.1549 145.453 45.6284C145.489 45.4248 145.404 45.205 145.188 45.1127C144.986 45.0259 144.839 45.1643 144.708 45.3C144.656 45.3543 144.607 45.414 144.563 45.4764C144.495 45.5714 144.419 45.6528 144.293 45.6012C144.187 45.5551 144.195 45.4465 144.192 45.3488C144.181 44.9146 144.198 44.4858 144.321 44.0624C144.471 43.544 144.613 43.0202 144.754 42.4992C144.815 42.2793 144.771 42.0703 144.555 41.9699C144.356 41.8749 144.206 42.0215 144.078 42.1572C144.04 42.1952 144.012 42.244 143.985 42.2902C143.346 43.3622 143.005 44.5238 142.932 45.5877ZM168.132 36.5637C168.121 36.6831 168.102 36.7998 168.102 36.9192C168.107 37.1824 168.167 37.4376 168.454 37.5163C168.724 37.5923 168.871 37.3914 168.983 37.1797C169.032 37.0847 169.065 36.9789 169.098 36.8785C169.3 36.2651 169.275 35.6463 169.125 35.0248C168.92 34.1726 168.473 33.4697 167.812 32.8998C167.529 32.6555 167.223 32.6474 166.986 32.8563C166.568 33.22 166.546 33.7058 166.931 34.1102C167.021 34.2052 167.119 34.2893 167.209 34.387C167.782 35.0004 168.208 35.6762 168.132 36.5637Z" fill="#10C789"></path>
              <path d="M177.001 56.1614C176.916 50.6438 176.984 45.129 176.963 39.6115C176.963 39.3753 176.944 39.1338 177.001 38.9004C177.001 44.654 177.001 50.4077 177.001 56.1614Z" fill="#FEFEFE"></path>
              <path d="M30.3025 34.5738C30.3053 34.4463 30.2179 34.4056 30.1606 34.3458C29.5194 33.7108 28.8781 33.073 28.2287 32.4461C28.1004 32.3212 28.0459 32.2018 28.0595 32.02C28.1004 31.5233 28.1305 31.0239 28.1496 30.5245C28.1577 30.3319 28.2341 30.2016 28.3842 30.0903C30.5699 28.4511 32.9631 28.0304 35.5417 28.964C36.505 29.3114 37.2226 29.979 37.3891 31.0619C37.4628 31.5477 37.3127 32.0064 37.1298 32.4515C36.7969 33.2657 36.2894 33.9659 35.6782 34.6227C35.9046 34.7448 36.142 34.7367 36.3685 34.7584C37.0753 34.8262 37.782 34.8778 38.486 34.7339C38.9663 34.6362 39.3128 34.3757 39.5339 33.936C39.9841 33.035 40.1997 32.0607 40.448 31.0945C40.5517 30.6928 40.5462 30.6901 40.9337 30.8177C41.4522 30.9859 41.9652 31.1705 42.4891 31.3116C42.7647 31.3849 42.7893 31.5043 42.7156 31.7486C42.5409 32.3239 42.4263 32.9074 42.5901 33.5072C42.6064 33.5642 42.5901 33.6429 42.6774 33.6755C42.8029 33.6022 42.8466 33.4611 42.9175 33.3471C43.5669 32.2995 44.2846 31.3035 45.2478 30.511C46.7923 29.2408 48.5742 28.736 50.5334 29.1078C52.1352 29.4118 53.2158 30.4106 53.576 32.0172C53.9443 33.6538 53.385 35.0135 52.0806 36.0557C51.1228 36.821 49.9822 37.1955 48.7952 37.4208C46.9915 37.7655 45.1769 37.817 43.3677 37.4642C42.6064 37.3149 41.9352 36.9594 41.3267 36.479C41.2257 36.4003 41.152 36.2945 41.0019 36.4356C40.2242 37.1657 39.2583 37.4398 38.2241 37.5022C37.0562 37.5728 35.8883 37.5429 34.7449 37.2634C34.1692 37.1223 33.6289 36.8943 33.1432 36.5496C33.0422 36.479 32.9603 36.4248 32.8239 36.498C31.1621 37.3774 29.3584 37.5456 27.5219 37.5158C26.9189 37.5049 26.3322 37.3638 25.7892 37.0897C25.5218 36.954 25.2707 36.6663 25.0115 36.6663C24.7632 36.6663 24.5121 36.9404 24.2338 37.0435C23.4589 37.3312 22.6539 37.4479 21.8325 37.4886C20.9157 37.5321 20.0015 37.5728 19.0901 37.4154C17.9986 37.2254 17.1445 36.6826 16.5524 35.7463C16.4815 35.635 16.4405 35.5101 16.2659 35.6513C15.0161 36.6582 13.5508 37.1575 11.9845 37.3692C9.66234 37.6813 7.34837 37.6271 5.06441 37.0625C4.4177 36.9024 3.801 36.6609 3.22524 36.3162C1.69987 35.4043 1.05043 34.0609 1.23872 32.3131C1.33968 31.3767 1.62893 30.4947 2.03278 29.6452C2.12283 29.4552 2.19923 29.4145 2.39297 29.5312C2.91416 29.8488 3.44081 30.1527 3.97564 30.4458C4.16393 30.549 4.18303 30.6412 4.09025 30.8258C3.81192 31.3822 3.61818 31.963 3.56906 32.5926C3.50903 33.3797 3.87741 33.8953 4.55687 34.2291C5.15173 34.5223 5.79571 34.6661 6.44515 34.7122C8.42622 34.8561 10.41 34.9212 12.3856 34.601C12.7731 34.5385 13.1524 34.4327 13.5262 34.3187C14.9807 33.8709 15.7392 32.8233 16.0803 31.4066C16.1431 31.146 16.1104 30.7851 16.3177 30.6575C16.5279 30.53 16.8307 30.7362 17.0927 30.7987C17.5375 30.9018 17.9768 31.0402 18.4243 31.1271C18.659 31.1732 18.6699 31.2817 18.6344 31.4663C18.5417 31.9223 18.4734 32.3863 18.3643 32.8369C18.0778 34.0419 18.8064 34.6552 19.8051 34.7774C20.6701 34.8832 21.5515 34.8642 22.4137 34.6987C23.6226 34.468 24.0401 33.784 23.7918 32.5003C23.7345 32.2018 23.6553 31.9087 23.5735 31.6183C23.5298 31.469 23.5707 31.4012 23.7154 31.3605C24.4166 31.165 25.1207 30.9696 25.8192 30.7607C26.0211 30.701 26.0566 30.8149 26.0975 30.9615C26.3186 31.792 26.4305 32.6415 26.5614 33.4855C26.5969 33.7216 26.6433 33.955 26.747 34.1721C26.9353 34.5684 27.2272 34.8072 27.6857 34.8126C28.5698 34.8316 29.443 34.7801 30.3025 34.5738ZM46.2056 34.8615V34.8588C46.5767 34.8588 46.9479 34.8751 47.319 34.8561C48.1812 34.8099 49.0326 34.6987 49.8512 34.4028C50.4243 34.1939 50.9345 33.8953 51.3029 33.3932C51.7423 32.7962 51.4503 32.3565 51.0273 32.0661C50.7244 31.8571 50.3697 31.7784 50.0095 31.7431C48.0912 31.5559 45.5889 32.9563 44.7458 34.6769C44.6694 34.8316 44.7157 34.8642 44.8658 34.8642C45.3106 34.8588 45.7581 34.8615 46.2056 34.8615ZM30.6191 31.5206C31.4049 32.1855 32.1472 32.8152 32.8894 33.4475C32.974 33.5181 33.0285 33.4638 33.0886 33.4177C33.7517 32.9047 34.3902 32.3646 34.9278 31.7133C35.1078 31.4934 35.0342 31.412 34.7968 31.3523C34.0818 31.1705 33.356 31.0999 32.6247 31.1569C31.9671 31.2085 31.3122 31.2953 30.6191 31.5206Z" fill="#10C789"></path>
              <path d="M83.3332 55.8168C83.7288 55.9063 84.0917 55.9715 84.4601 55.9688C85.4397 55.9606 86.4248 56.042 87.3935 55.8385C87.7483 55.7625 88.0866 55.6458 88.3759 55.4232C88.6515 55.2088 88.7661 54.9374 88.6869 54.5928C88.4359 53.5207 87.9747 52.5274 87.4863 51.5477C87.3526 51.279 87.3608 51.1596 87.6555 51.0293C88.3104 50.7389 88.9489 50.4078 89.5902 50.0875C89.7102 50.0278 89.7866 49.9817 89.8603 50.1581C90.4579 51.5802 91.02 53.0105 91.0964 54.5765C91.121 55.1111 91.0855 55.6404 90.9163 56.1506C90.4606 57.5212 89.4292 58.2078 88.0784 58.5036C87.6746 58.5932 87.2625 58.6502 86.845 58.6502C85.6144 58.6502 84.3837 58.7832 83.1558 58.585C82.3072 58.4466 81.5022 58.2105 80.7954 57.7057C80.6999 57.6379 80.6263 57.6107 80.5062 57.6731C79.1009 58.4358 77.5619 58.68 75.9928 58.6909C71.7033 58.718 67.4137 58.7017 63.1241 58.7017C62.0654 58.7017 61.0066 58.7045 59.9479 58.7017C58.9655 58.699 58.0459 58.49 57.2519 57.8794C57.1591 57.8088 57.099 57.8034 57.0008 57.8685C56.2449 58.3761 55.3745 58.5416 54.4958 58.623C53.6172 58.7045 52.7331 58.7777 51.8517 58.6447C51.617 58.6095 51.3878 58.5389 51.1395 58.4792C51.0958 59.0627 51.0603 59.6326 50.8993 60.1863C50.4791 61.6491 49.6332 62.8134 48.2934 63.5462C45.9494 64.8245 43.5045 64.9466 41.065 63.8637C39.2749 63.0685 38.3608 61.5731 38.1015 59.6733C37.8587 57.8903 38.2271 56.2022 38.9857 54.5873C39.193 54.145 39.4223 53.7161 39.6324 53.2765C39.7115 53.1109 39.777 53.0784 39.938 53.1978C40.4428 53.575 40.9558 53.9441 41.477 54.2996C41.6571 54.4218 41.6489 54.5195 41.5589 54.6932C40.9804 55.8086 40.6147 56.9892 40.4346 58.2376C40.2491 59.5322 40.7675 60.474 41.8317 61.1606C42.8932 61.8473 44.0802 61.9287 45.2945 61.812C45.7611 61.7658 46.2196 61.6817 46.6671 61.5243C48.2579 60.9679 49.0083 59.6706 48.6809 58.0178C48.4598 56.9132 47.9932 55.9009 47.4993 54.8967C47.3438 54.5792 46.9972 54.2345 47.1037 53.9468C47.2019 53.6863 47.644 53.5506 47.9359 53.366C48.3398 53.1082 48.7491 52.8612 49.1475 52.5953C49.3139 52.484 49.3904 52.4921 49.4831 52.6794C49.7615 53.2412 50.0562 53.7976 50.3481 54.3539C50.4982 54.6416 50.6674 54.9212 50.8584 55.1844C51.2486 55.7163 51.7371 56.0393 52.4302 56.0067C53.0387 55.9769 53.6526 56.0067 54.2584 55.9226C55.6665 55.7299 56.1685 55.0324 55.8848 53.6483C55.8302 53.3823 55.7783 53.1136 55.691 52.8585C55.6201 52.655 55.6665 52.5763 55.8738 52.522C56.5451 52.3429 57.2164 52.1529 57.8822 51.9466C58.1005 51.8788 58.1551 51.9656 58.2015 52.1475C58.4198 52.9779 58.5316 53.8274 58.6626 54.6742C58.6981 54.9103 58.7445 55.1437 58.8482 55.3608C59.031 55.7435 59.3121 55.9823 59.7568 55.9959C59.8332 55.9986 59.9096 56.0067 59.9861 56.0067C65.258 56.004 70.5299 56.004 75.8018 55.9986C76.5413 55.9986 77.2754 55.9253 78.0721 55.6621C77.9466 55.5671 77.8075 55.4829 77.6956 55.3744C77.0953 54.7909 76.5031 54.1965 75.9001 53.6157C75.78 53.5017 75.7254 53.3932 75.7418 53.2222C75.7855 52.7255 75.8128 52.2262 75.8346 51.7268C75.8428 51.5422 75.8973 51.4011 76.0529 51.2844C78.255 49.6289 80.6563 49.2218 83.2649 50.1527C83.6906 50.3047 84.0535 50.5652 84.3728 50.8854C85.0413 51.5558 85.2487 52.3293 84.9568 53.2385C84.6348 54.2074 84.0645 55.0297 83.3332 55.8168ZM78.3532 52.6631C78.3614 52.7038 78.3587 52.7337 78.3723 52.7445C79.09 53.3606 79.8131 53.974 80.528 54.5928C80.6262 54.6796 80.689 54.6552 80.7763 54.5846C81.4285 54.0744 82.0588 53.5424 82.5909 52.8992C82.7601 52.693 82.7574 52.5953 82.4736 52.5247C81.0874 52.1692 79.7203 52.3022 78.3532 52.6631Z" fill="#42526E"></path>
              <path d="M47.4821 13.6594C56.4978 13.6594 65.5136 13.6432 74.5293 13.6784C75.76 13.6839 76.4995 13.1655 77.0016 12.1369C77.3208 11.4855 77.6401 10.8342 78.0194 10.2127C78.3114 9.73773 78.6497 9.30078 79.0863 8.94796C80.418 7.87594 82.249 8.01706 83.2668 9.3822C84.4429 10.9617 84.6966 12.7394 84.0499 14.6202C83.9981 14.7722 83.9108 14.9133 83.8289 15.0544C83.2122 16.0912 82.3827 16.4739 81.1902 16.2757C80.1151 16.0993 79.1054 15.7357 78.1749 15.1766C78.003 15.0734 77.9184 15.0762 77.7875 15.2363C77.1489 16.0152 76.2785 16.3029 75.3043 16.349C75.1515 16.3572 74.9987 16.3544 74.8459 16.3544C56.6615 16.3544 38.4772 16.3544 20.2956 16.3544C19.7908 16.3544 19.2914 16.3219 18.803 16.197C17.2694 15.8089 16.3417 14.6908 16.2953 13.0678C16.2543 11.605 16.2925 10.1367 16.2898 8.67114C16.2844 6.99932 16.2298 5.33021 16.0279 3.66654C15.9569 3.08303 15.9596 3.08303 16.5272 2.90933C17.1084 2.73021 17.6951 2.56195 18.2736 2.37468C18.4592 2.31497 18.511 2.3584 18.541 2.54295C18.7402 3.76696 18.7757 5.00454 18.8439 6.2394C18.9558 8.25861 18.8166 10.2751 18.8385 12.2943C18.8412 12.5684 18.8849 12.8344 18.9776 13.0922C19.0977 13.4233 19.3324 13.6052 19.6844 13.6269C19.9791 13.6432 20.2738 13.654 20.5685 13.654C29.5406 13.6594 38.5127 13.6594 47.4821 13.6594ZM82.3172 13.1194C82.2735 12.4354 82.1043 11.7298 81.5504 11.1734C81.122 10.7446 80.6554 10.7663 80.2515 11.2141C79.9268 11.5724 79.744 12.0148 79.5284 12.4382C79.3838 12.7204 79.4684 12.8208 79.7167 12.9402C80.418 13.2768 81.1575 13.483 81.9188 13.6106C82.3254 13.6784 82.3281 13.6757 82.3172 13.2524C82.3172 13.2306 82.3172 13.2089 82.3172 13.1194Z" fill="#42526E"></path>
              <path d="M90.3434 34.8164C88.7907 31.8201 91.0774 28.9867 93.6533 28.5687C95.2196 28.3136 96.6031 28.7832 97.8419 29.7412C97.9593 29.8335 97.9702 29.9095 97.8992 30.0424C97.5991 30.5961 97.3017 31.1498 97.026 31.7143C96.9251 31.9205 96.8214 31.8391 96.6931 31.7794C95.8963 31.4022 95.0695 31.1498 94.1718 31.2122C93.5087 31.2583 92.952 31.5243 92.5182 32.0264C92.0024 32.6234 92.0543 33.3345 92.6764 33.8257C93.4814 34.4608 94.4201 34.5667 95.4052 34.4418C96.1938 34.3414 96.9797 34.2138 97.7574 34.0483C97.9184 34.013 97.9757 34.051 97.9948 34.2003C98.0903 34.9521 98.1803 35.7065 98.2922 36.4583C98.3277 36.689 98.1776 36.7053 98.033 36.7379C96.8105 37.0255 95.5716 37.2074 94.3219 37.3295C92.5946 37.4978 90.8591 37.5466 89.1236 37.5303C88.0949 37.5222 87.2135 37.2209 86.6104 36.3362C86.5231 36.2086 86.4713 36.2222 86.3621 36.3172C84.6703 37.8262 82.6374 38.255 80.438 38.1437C80.0888 38.1274 79.7422 38.0759 79.3957 38.0487C79.2292 38.0351 79.1392 38.0026 79.1801 37.7936C79.3192 37.0581 79.442 36.3199 79.5621 35.5817C79.5948 35.3836 79.6603 35.332 79.8814 35.3592C80.6045 35.4433 81.3276 35.5654 82.0644 35.465C82.2772 35.4351 82.3018 35.3809 82.2663 35.1855C82.0152 33.7878 81.4395 32.5176 80.7546 31.2909C79.9196 29.7982 78.929 28.4086 77.8184 27.1086C77.6629 26.9268 77.6711 26.8345 77.8375 26.669C78.3751 26.1452 78.899 25.6078 79.412 25.0596C79.5758 24.8832 79.6522 24.894 79.794 25.084C81.8406 27.8251 83.366 30.8295 84.3838 34.089C84.4929 34.4418 84.4984 34.45 84.7713 34.1921C85.5408 33.4621 85.7454 32.5719 85.5571 31.546C85.1178 29.1468 84.7085 26.7422 84.2828 24.3404C84.2501 24.1612 84.2637 24.0717 84.4766 24.0282C85.1888 23.8735 85.8982 23.6999 86.605 23.518C86.7878 23.4719 86.8506 23.4963 86.8806 23.6917C87.2626 26.2103 87.6228 28.7343 87.8766 31.2692C87.9584 32.0752 88.0703 32.884 88.3132 33.6656C88.3841 33.8936 88.4742 34.1134 88.5997 34.3197C88.8098 34.6644 89.1045 34.8435 89.522 34.8191C89.784 34.8028 90.0459 34.8164 90.3434 34.8164Z" fill="#10C789"></path>
              <path d="M97.7424 15.3075C96.8446 16.4093 95.6767 16.6047 94.3915 16.3605C93.8239 16.2546 93.3901 15.9018 93.0299 15.4622C92.9616 15.378 92.9125 15.283 92.7897 15.4242C92.2713 16.0158 91.5864 16.2546 90.825 16.3279C90.0937 16.3985 89.3624 16.3822 88.6448 16.2139C87.1058 15.8503 86.148 14.705 86.1043 13.0766C86.0607 11.3966 86.1098 9.71393 86.0907 8.03125C86.0716 6.45985 86.0279 4.88574 85.7741 3.32791C85.7469 3.15964 85.7796 3.07551 85.9542 3.02394C86.6637 2.81768 87.3732 2.6087 88.0772 2.38073C88.2928 2.31016 88.3282 2.39158 88.3555 2.57342C88.5465 3.78657 88.5875 5.0133 88.653 6.23731C88.7648 8.25651 88.6257 10.273 88.6475 12.2895C88.6502 12.5853 88.6966 12.873 88.8085 13.1471C88.9258 13.4348 89.1441 13.5895 89.4525 13.6302C90.6613 13.7903 91.3708 13.4294 91.952 12.3601C92.3668 11.6001 92.5769 10.7697 92.787 9.9419C92.847 9.70578 92.9262 9.64336 93.1799 9.70036C93.7421 9.82791 94.3151 9.91476 94.8827 10.007C95.0928 10.0396 95.1637 10.0912 95.0983 10.3354C94.8909 11.1198 94.7026 11.9123 94.6562 12.7292C94.6426 12.9571 94.6453 13.1851 94.7162 13.405C94.8035 13.6736 94.9755 13.7822 95.2647 13.7333C95.7477 13.6519 96.056 13.3425 96.3125 12.9653C96.7655 12.2976 96.9811 11.5377 97.1584 10.7642C97.2103 10.5417 97.2512 10.3191 97.2894 10.0939C97.3604 9.66236 97.3576 9.66236 97.7724 9.73292C98.2772 9.81977 98.7821 9.90933 99.2869 9.98532C99.4697 10.0125 99.5516 10.0722 99.5243 10.2757C99.4588 10.7805 99.4069 11.288 99.3578 11.7956C99.3169 12.2189 99.3169 12.6423 99.4479 13.0521C99.6198 13.5949 99.9772 13.8229 100.539 13.7523C101.383 13.6465 101.825 13.0711 101.699 12.2352C101.535 11.1388 101.063 10.1482 100.575 9.16842C100.43 8.87802 100.479 8.7586 100.76 8.61748C101.306 8.34608 101.827 8.03397 102.359 7.73543C102.466 7.67572 102.542 7.60516 102.627 7.78699C103.279 9.22269 103.841 10.6828 103.994 12.2705C104.049 12.8377 104.016 13.3995 103.879 13.9505C103.522 15.3916 102.387 16.3008 100.807 16.4256C100.37 16.4609 99.9363 16.4772 99.5024 16.3985C98.7793 16.2628 98.179 15.9181 97.7424 15.3075Z" fill="#42526E"></path>
              <path d="M9.42709 16.3554C8.6685 16.3663 7.94538 16.3853 7.24955 16.1546C6.70381 15.9727 6.20717 15.6986 5.84971 15.2399C5.70781 15.0581 5.56319 15.0635 5.36945 15.0852C4.31343 15.202 3.25468 15.2237 2.22321 14.9224C1.159 14.613 0.334924 14.0214 0.075694 12.8761C-0.118047 12.0184 0.0675067 11.2178 0.547765 10.4878C1.35547 9.26374 2.52338 8.48754 3.83863 7.91489C4.07603 7.81176 4.15243 7.7032 4.1115 7.46708C4.08967 7.33952 4.10059 7.20654 4.08967 7.07627C4.03783 6.45476 4.03783 6.45748 4.67089 6.32449C5.28759 6.19693 5.90701 6.06938 6.52098 5.92825C6.67925 5.89297 6.71745 5.92282 6.73655 6.08566C6.96849 8.01259 7.2059 9.93681 7.44602 11.8637C7.49241 12.2301 7.54153 12.5938 7.60429 12.9575C7.67251 13.351 7.87171 13.5817 8.26192 13.6116C9.26337 13.6875 10.2648 13.731 11.2472 13.4324C11.4573 13.37 11.6537 13.275 11.8311 13.1502C12.1476 12.9276 12.2786 12.6372 12.1858 12.2491C11.9348 11.1988 11.4709 10.2326 11.0152 9.26374C10.8406 8.88921 10.8351 8.89193 11.2171 8.70195C11.8393 8.39255 12.4642 8.08587 13.0863 7.77919C13.1873 7.73034 13.2773 7.63806 13.3592 7.83347C13.9623 9.26374 14.5271 10.7049 14.6008 12.2817C14.6281 12.8815 14.5762 13.4731 14.3497 14.0376C13.8122 15.3756 12.7261 15.9836 11.3754 16.2333C10.7178 16.3554 10.052 16.3744 9.42709 16.3554ZM3.82771 12.4554C4.06784 12.4554 4.30524 12.45 4.54537 12.4581C4.70637 12.4635 4.73911 12.412 4.71728 12.2491C4.63542 11.6602 4.56447 11.0685 4.50717 10.4769C4.48807 10.2869 4.44987 10.2598 4.27796 10.3521C3.85773 10.5773 3.4375 10.8053 3.04456 11.0794C2.76623 11.2721 2.49882 11.4784 2.29689 11.7525C2.05949 12.0727 2.11679 12.222 2.49882 12.3306C2.93541 12.4473 3.3802 12.469 3.82771 12.4554Z" fill="#42526E"></path>
              <path d="M59.7162 37.5407C59.0122 37.5108 58.3382 37.5163 57.6724 37.405C57.2521 37.3344 56.8428 37.2231 56.4526 37.0467C55.1565 36.4578 54.5097 35.4346 54.4988 34.0369C54.4879 32.6582 54.9027 31.4016 55.8332 30.3568C57.1594 28.8695 59.1977 28.9183 60.5812 30.4572C61.5199 31.4993 61.9947 32.7613 62.2539 34.1102C63.0234 38.1269 60.8786 41.1639 57.4486 42.6783C56.5672 43.0664 55.6476 43.3269 54.7008 43.4925C54.537 43.5223 54.4715 43.5006 54.4333 43.3296C54.2642 42.5914 54.0813 41.8532 53.8931 41.1204C53.8412 40.9196 53.9367 40.887 54.1004 40.8518C55.3857 40.5776 56.6245 40.1787 57.7651 39.5138C58.3818 39.1528 58.944 38.7294 59.3778 38.154C59.5143 37.9695 59.6398 37.7849 59.7162 37.5407ZM59.1104 34.8348C59.3069 34.8348 59.5033 34.8267 59.6998 34.8375C59.8799 34.8457 59.9345 34.7833 59.8854 34.6096C59.7162 34.0369 59.5415 33.467 59.225 32.9513C59.0013 32.5877 58.7338 32.2593 58.33 32.072C58.0571 31.9444 57.8061 31.9689 57.5687 32.1643C57.2412 32.4357 57.0202 32.7803 56.8728 33.1712C56.5945 33.9012 56.7937 34.3355 57.5305 34.5906C58.0435 34.767 58.5756 34.8104 59.1104 34.8348Z" fill="#10C789"></path>
              <path d="M69.6406 35.6441C69.7252 36.8029 69.8043 37.9157 69.8835 39.0311C69.9817 40.3935 70.0745 41.756 70.1782 43.1184C70.1945 43.3247 70.1345 43.3952 69.9271 43.4251C69.1822 43.5282 68.44 43.6503 67.7005 43.7752C67.504 43.8077 67.4904 43.7155 67.4849 43.5635C67.4276 42.1115 67.3648 40.6595 67.3048 39.2075C67.2557 37.9618 67.2011 36.7134 67.1656 35.4677C67.1438 34.6562 67.3457 33.9207 67.9788 33.3535C68.3936 32.9816 68.8957 32.8649 69.4305 32.8649C69.6351 32.8649 69.7307 32.8079 69.8152 32.6153C70.1645 31.8065 70.5957 31.0466 71.2096 30.3925C72.9888 28.5036 75.371 29.2933 76.356 31.0194C77.2975 32.6668 77.1446 35.009 75.9904 36.4881C75.4337 37.2019 74.727 37.3919 73.8756 37.2453C72.4103 36.9929 71.035 36.5044 69.777 35.7065C69.7579 35.6929 69.7279 35.6848 69.6406 35.6441ZM74.8552 33.7497C74.8443 33.272 74.686 32.7401 74.2713 32.314C73.8101 31.8391 73.2234 31.8255 72.735 32.2679C72.4048 32.5664 72.2193 32.9572 72.0228 33.3453C71.9327 33.5272 71.9737 33.6059 72.1483 33.6873C72.7923 33.9804 73.4472 34.2382 74.1321 34.4201C74.8116 34.6019 74.8607 34.5666 74.8552 33.7497Z" fill="#10C789"></path>
              <path d="M11.5569 52.3134C11.6578 53.4153 11.7424 54.4846 11.7943 55.5566C11.8434 56.5554 11.8297 57.5541 11.8516 58.5529C11.857 58.751 11.7833 58.7808 11.6114 58.7781C10.902 58.77 10.1925 58.7673 9.48302 58.7808C9.27018 58.7863 9.21287 58.7293 9.2156 58.5149C9.21833 56.8431 9.18559 55.1712 9.02186 53.5076C8.81721 51.4286 8.48703 49.3823 7.52651 47.4879C7.4965 47.4309 7.46921 47.3712 7.43919 47.3142C7.13085 46.747 7.13084 46.747 7.66568 46.4132C8.14594 46.1119 8.63165 45.8215 9.101 45.5067C9.29746 45.3765 9.37933 45.4144 9.48575 45.6071C9.73679 46.0712 10.0097 46.5218 10.2825 46.994C11.1339 45.8704 12.2909 45.352 13.6553 45.2543C14.8095 45.1702 15.8574 45.4606 16.7688 46.1879C16.9079 46.2992 16.9543 46.3725 16.837 46.5489C16.4522 47.1134 16.0893 47.6942 15.7318 48.275C15.6254 48.446 15.5627 48.4758 15.3662 48.3673C14.392 47.8326 13.3906 47.6291 12.3537 48.2153C12.1053 48.3564 11.8816 48.5274 11.7097 48.7581C11.4204 49.1462 11.4805 49.4909 11.8843 49.7514C12.1736 49.9387 12.4983 50.0364 12.8312 50.0907C14.0646 50.2969 15.2434 50.1205 16.354 49.5479C16.5423 49.4501 16.6132 49.4583 16.7115 49.651C16.9871 50.1911 17.279 50.723 17.5792 51.2522C17.672 51.4151 17.672 51.4992 17.5001 51.6132C15.68 52.8074 13.7562 53.1303 11.6906 52.3324C11.6606 52.3216 11.6278 52.3243 11.5569 52.3134Z" fill="#42526E"></path>
              <path d="M101.764 53.4422C101.758 54.981 101.745 56.5226 101.655 58.0614C101.641 58.2948 101.532 58.3382 101.344 58.3654C100.642 58.4685 99.9437 58.5744 99.2451 58.6911C99.0432 58.7263 98.9831 58.6856 98.9968 58.4712C99.0596 57.3883 99.1059 56.3055 99.1551 55.2226C99.2478 53.2685 99.0705 51.3199 98.9668 49.3739C98.9013 48.1391 98.7867 46.9096 98.5602 45.6938C98.5329 45.5526 98.5602 45.4766 98.7048 45.4305C99.4716 45.1862 100.238 44.9447 100.997 44.6814C101.253 44.5919 101.207 44.7602 101.229 44.8877C101.611 47.3683 101.753 49.8679 101.764 52.3729C101.764 52.7257 101.764 53.084 101.764 53.4422Z" fill="#42526E"></path>
              <path d="M102.414 32.2595C102.414 33.7875 102.395 35.3182 102.31 36.8461C102.297 37.1012 102.185 37.1691 101.966 37.1989C101.287 37.2967 100.607 37.3944 99.9335 37.5138C99.6906 37.5572 99.636 37.4948 99.6497 37.2587C99.7397 35.7551 99.8734 34.2488 99.827 32.7426C99.7425 30.0014 99.6715 27.2576 99.2158 24.5436C99.1858 24.3672 99.2295 24.2966 99.3986 24.2424C100.124 24.0144 100.85 23.7783 101.568 23.5286C101.797 23.4499 101.852 23.4906 101.887 23.7321C102.318 26.5601 102.441 29.4044 102.414 32.2595Z" fill="#10C789"></path>
              <path d="M31.1732 55.7589C31.1732 56.6491 31.1677 57.5365 31.1786 58.4267C31.1813 58.6221 31.1295 58.69 30.9248 58.6845C30.2154 58.671 29.5059 58.671 28.7992 58.6845C28.5699 58.69 28.5345 58.6031 28.5372 58.4023C28.5481 56.6463 28.529 54.8877 28.4062 53.1344C28.2643 51.1098 28.0406 49.0987 27.3011 47.1854C27.2083 46.9438 27.1019 46.705 26.9845 46.4743C26.9136 46.3359 26.9109 46.2626 27.0609 46.1731C27.6776 45.804 28.2861 45.4267 28.8892 45.0386C29.0529 44.9328 29.1157 44.9735 29.2085 45.1255C29.9425 46.3413 30.3136 47.682 30.5701 49.0607C30.9712 51.2781 31.1513 53.5117 31.1732 55.7589Z" fill="#42526E"></path>
              <path d="M6.15573 55.762C6.15573 56.6522 6.15027 57.5396 6.16118 58.4298C6.16391 58.6279 6.10661 58.6904 5.90468 58.6876C5.19521 58.6768 4.48574 58.6741 3.77899 58.6876C3.54432 58.6931 3.51704 58.6008 3.51976 58.4054C3.52795 57.0267 3.52249 55.6507 3.45155 54.2747C3.33421 52.0004 3.16503 49.7315 2.41735 47.5521C2.29183 47.183 2.14721 46.8221 1.96165 46.4774C1.88525 46.3363 1.89343 46.2657 2.04079 46.1762C2.65475 45.807 3.26599 45.4298 3.86904 45.039C4.0355 44.9331 4.09553 44.9793 4.18558 45.1286C4.91961 46.3444 5.29072 47.6851 5.54449 49.0638C5.95653 51.2785 6.1339 53.5121 6.15573 55.762Z" fill="#42526E"></path>
              <path d="M97.3821 57.5449C97.3984 59.1271 96.6589 60.5656 95.5811 61.8547C94.4787 63.1737 93.1061 64.1589 91.5862 64.9514C91.4007 65.0491 91.3242 64.9894 91.2233 64.8482C90.8112 64.262 90.3938 63.6812 89.9626 63.1058C89.8344 62.9349 89.848 62.867 90.0417 62.7666C91.3242 62.1017 92.5031 61.2902 93.5209 60.2616C93.8729 59.9061 94.1867 59.518 94.4623 59.0973C95.0299 58.2369 95.1609 57.3223 94.8525 56.3372C94.5796 55.4687 94.2222 54.6328 93.8647 53.7996C93.7965 53.6394 93.7692 53.5526 93.9739 53.4658C94.6724 53.1645 95.3601 52.8388 96.0504 52.5267C96.1377 52.486 96.2387 52.391 96.2987 52.5756C96.8036 54.1524 97.363 55.7211 97.3821 57.5449Z" fill="#42526E"></path>
              <path d="M22.1778 50.3506C23.9487 50.3506 25.3977 51.7971 25.395 53.5612C25.3922 55.3063 23.9433 56.742 22.1805 56.742C20.3986 56.7447 18.9633 55.309 18.9688 53.5314C18.977 51.7754 20.4123 50.3506 22.1778 50.3506ZM22.175 54.8124C22.8927 54.8124 23.4766 54.2424 23.4712 53.545C23.4657 52.8529 22.8681 52.2612 22.175 52.2639C21.4792 52.2667 20.8953 52.8637 20.9034 53.5639C20.9062 54.2614 21.4683 54.8124 22.175 54.8124Z" fill="#42526E"></path>
              <path d="M54.106 62.7842C54.0596 62.7462 54.0159 62.7136 53.9777 62.6756C53.5057 62.2088 53.0391 61.7366 52.5588 61.2806C52.436 61.1639 52.4715 61.1015 52.5697 61.0065C53.0281 60.556 53.4838 60.1054 53.9286 59.6441C54.0569 59.5138 54.1251 59.5409 54.237 59.6576C54.6708 60.1 55.1184 60.5315 55.5522 60.9739C55.6696 61.0961 55.7378 61.1015 55.8606 60.9766C56.2781 60.5478 56.7119 60.1353 57.1267 59.7038C57.2631 59.5627 57.3477 59.5247 57.506 59.6902C57.9344 60.138 58.3819 60.5668 58.8267 61.0011C58.9277 61.0988 58.9959 61.1666 58.854 61.3023C58.3847 61.7556 57.9235 62.2196 57.4705 62.6865C57.3559 62.8059 57.2932 62.7869 57.1895 62.6783C56.7556 62.2359 56.3081 61.8071 55.8742 61.362C55.746 61.229 55.6723 61.2263 55.5413 61.362C55.1265 61.7936 54.6954 62.2088 54.2724 62.6295C54.2206 62.6783 54.1633 62.7299 54.106 62.7842Z" fill="#42526E"></path>
              <path d="M3.20666 4.59039C2.74005 4.25929 2.39895 3.88476 2.27616 3.36367C2.0142 2.25908 2.8683 1.1192 4.03893 0.999787C4.4919 0.953649 4.9285 1.04321 5.3651 1.14091C5.48516 1.16805 5.52882 1.23047 5.4797 1.34989C5.47152 1.36889 5.46879 1.3906 5.46333 1.41231C5.3842 1.65929 5.37055 1.97139 5.20683 2.13695C5.02673 2.3215 4.72657 2.11252 4.47826 2.09624C4.12625 2.07452 3.80426 2.12066 3.53138 2.35949C3.24214 2.61189 3.13844 2.95386 3.26397 3.29853C3.38676 3.63778 3.67601 3.75449 4.00345 3.80062C4.28179 3.83862 4.54647 3.76534 4.79206 3.64321C5.11405 3.4858 5.43604 3.32567 5.74985 3.15469C5.88356 3.08142 5.97361 3.06242 6.06911 3.21712C6.18918 3.40981 6.32834 3.59436 6.47842 3.76534C6.60667 3.9119 6.5521 3.9716 6.4102 4.05031C5.11132 4.78037 3.81517 5.51315 2.52448 6.25136C2.37712 6.33549 2.30618 6.32735 2.2325 6.16994C2.10698 5.90668 1.82865 5.63257 1.86685 5.40459C1.89687 5.22818 2.30618 5.10877 2.54904 4.96764C2.75369 4.84279 2.96107 4.72881 3.20666 4.59039Z" fill="#42526E"></path>
              <path d="M8.50424 26.7588C8.57246 26.8185 8.62976 26.8673 8.68161 26.9189C9.10729 27.3396 9.5357 27.7575 9.95047 28.1863C10.0869 28.3302 10.166 28.3383 10.3079 28.1891C10.72 27.7575 11.1566 27.345 11.5741 26.9162C11.6996 26.7859 11.776 26.7751 11.9097 26.9108C12.349 27.3613 12.7993 27.8037 13.255 28.2433C13.375 28.36 13.3805 28.436 13.2577 28.5554C12.8075 28.9978 12.3599 29.4429 11.9234 29.8962C11.7924 30.0319 11.716 30.0237 11.5904 29.8934C11.1675 29.4565 10.7254 29.0358 10.2998 28.5989C10.1715 28.4686 10.0951 28.4577 9.96139 28.5962C9.54662 29.025 9.11002 29.4375 8.69525 29.869C8.55335 30.0183 8.47149 30.0047 8.33506 29.8636C7.90391 29.4185 7.45913 28.987 7.01435 28.5527C6.91611 28.455 6.83698 28.3872 6.9816 28.2488C7.44549 27.8037 7.893 27.345 8.34597 26.8918C8.39509 26.8456 8.44693 26.8076 8.50424 26.7588Z" fill="#10C789"></path>
              <path d="M26.877 39.9832C26.8334 40.0375 26.7979 40.0917 26.7542 40.1379C26.3013 40.5938 25.8428 41.0443 25.398 41.5057C25.2725 41.636 25.2016 41.6061 25.0897 41.4949C24.6722 41.0688 24.2356 40.6562 23.8236 40.222C23.6598 40.0483 23.5671 40.0727 23.4142 40.2301C23.0159 40.6454 22.5956 41.0416 22.1945 41.4569C22.0581 41.598 21.9762 41.6089 21.8343 41.4596C21.4032 41.0145 20.9638 40.5775 20.5109 40.1514C20.3608 40.0103 20.3799 39.9316 20.5191 39.7986C20.9584 39.3752 21.3895 38.9464 21.8125 38.5068C21.9516 38.3629 22.0335 38.3575 22.1727 38.504C22.5793 38.9274 23.0104 39.3291 23.4142 39.7525C23.5671 39.9099 23.6544 39.937 23.8208 39.7633C24.2165 39.3427 24.6395 38.9519 25.0406 38.5366C25.177 38.3955 25.2643 38.3548 25.4226 38.523C25.851 38.9709 26.3013 39.3997 26.7406 39.8339C26.787 39.8773 26.8279 39.9289 26.877 39.9832Z" fill="#10C789"></path>
              <path d="M87.8692 59.5547C87.9183 59.6008 87.9592 59.6334 87.9974 59.6714C88.5459 60.2142 89.0889 60.7624 89.6428 61.2998C89.7547 61.4083 89.7574 61.4708 89.6428 61.582C89.0889 62.1194 88.5432 62.6649 88.0001 63.2131C87.8992 63.3163 87.8391 63.3108 87.7409 63.2104C87.1897 62.6541 86.6358 62.1031 86.0764 61.5549C85.9863 61.4653 85.9836 61.4111 86.0764 61.3215C86.6358 60.7733 87.187 60.2196 87.7436 59.6687C87.7791 59.6307 87.82 59.5981 87.8692 59.5547Z" fill="#42526E"></path>
              <path d="M49.4319 27.9116C49.3883 27.8763 49.3419 27.8492 49.3064 27.8139C48.7498 27.263 48.1986 26.7066 47.6364 26.1584C47.5218 26.0471 47.5628 25.9901 47.6528 25.9033C48.1958 25.3686 48.7388 24.8339 49.271 24.2911C49.3937 24.1663 49.4647 24.1744 49.5848 24.2966C50.1196 24.8394 50.6626 25.374 51.2029 25.9114C51.2738 25.982 51.3475 26.0308 51.2356 26.1421C50.6681 26.6985 50.1059 27.2602 49.5438 27.8193C49.5138 27.8465 49.4783 27.8709 49.4319 27.9116Z" fill="#10C789"></path>
              <path d="M42.6016 52.4267C43.2155 51.8188 43.7886 51.2516 44.3534 50.6816C44.4571 50.5758 44.5226 50.5161 44.6618 50.6572C45.2403 51.2462 45.8324 51.8215 46.4382 52.4213C45.8351 53.0157 45.243 53.591 44.659 54.1773C44.5472 54.2885 44.4817 54.2858 44.3725 54.1745C43.7886 53.591 43.1992 53.013 42.6016 52.4267Z" fill="#42526E"></path>
              <path d="M11.3065 6.75114C11.2492 6.69686 11.2001 6.65615 11.1564 6.61272C10.6161 6.07535 10.0786 5.53527 9.53281 5.00604C9.41821 4.89477 9.42366 4.83778 9.53554 4.73193C10.0813 4.19999 10.6216 3.66533 11.1537 3.12253C11.2765 2.99769 11.342 3.00312 11.462 3.12525C11.9941 3.66804 12.5372 4.2027 13.0802 4.73736C13.1648 4.81878 13.2221 4.87306 13.102 4.98704C12.5399 5.53256 11.9887 6.08892 11.4347 6.63986C11.3993 6.67515 11.3583 6.70771 11.3065 6.75114Z" fill="#42526E"></path>
              <path d="M141.777 32.7774C141.34 33.3908 140.893 33.9037 140.402 34.3733C138.955 35.7547 137.337 36.8783 135.433 37.5459C134.767 37.7793 134.079 37.9747 133.359 37.9204C132.177 37.8309 131.334 37.0954 131.028 35.9609C130.851 35.3014 130.796 34.6419 130.892 33.9689C130.908 33.8522 130.963 33.6921 130.87 33.6323C130.756 33.5564 130.668 33.7165 130.581 33.7816C128.663 35.2499 126.564 36.425 124.384 37.4564C123.715 37.7712 122.954 37.8363 122.234 38.0073C120.506 38.4198 118.79 38.8785 117.041 39.1852C116.812 39.2259 116.591 39.2394 116.37 39.1417C115.865 38.9192 115.807 38.4551 116.26 38.1349C116.662 37.8526 117.123 37.668 117.57 37.4726C119.778 36.5146 122.018 35.638 124.196 34.6148C126.583 33.4912 128.905 32.2482 130.936 30.5384C131.492 30.0689 131.91 29.4935 132.204 28.8259C132.423 28.3292 132.666 27.8434 132.9 27.3549C133.061 27.0156 133.312 26.7687 133.675 26.6547C133.962 26.5651 134.142 26.3426 134.341 26.1444C134.734 25.7536 135.187 25.4551 135.722 25.3058C136.505 25.086 137.253 25.371 137.725 26.0386C138.729 27.4553 138.743 29.2764 137.757 30.7012C137.234 31.4612 136.568 31.6131 135.643 31.1925C134.993 30.8966 134.412 30.495 133.866 30.0417C133.574 29.8002 133.533 29.811 133.372 30.1367C132.737 31.415 132.466 32.7747 132.472 34.1914C132.475 34.6989 132.728 34.9269 133.247 34.9513C134.426 35.0056 135.517 34.7017 136.54 34.1534C138.03 33.3555 139.346 32.3405 140.47 31.0703C140.969 30.5058 141.032 29.906 140.95 29.233C140.718 27.3277 140.03 25.5609 139.266 23.8213C139.228 23.7317 139.198 23.6367 139.146 23.5553C138.603 22.7031 138.68 21.8129 138.958 20.9037C139.059 20.5726 139.231 20.2985 139.602 20.2469C139.93 20.2008 140.159 20.3989 140.336 20.6432C141.032 21.5985 141.542 22.6515 141.954 23.7507C142.525 25.2705 142.819 26.8582 143.122 28.4432C143.335 29.5586 143.529 30.6795 143.731 31.7977C143.739 31.8411 143.744 31.8845 143.755 31.9252C144.069 33.1683 144.336 33.1221 145.234 33.1194C146.689 33.1167 147.979 32.6065 149.218 31.9198C149.319 31.8628 149.445 31.8113 149.439 31.6647C149.434 31.4991 149.292 31.4612 149.175 31.4123C148.921 31.3037 148.659 31.2522 148.38 31.2495C147.739 31.244 147.095 31.2983 146.459 31.1382C145.354 30.8641 144.648 29.792 144.822 28.6712C144.961 27.7756 145.341 26.9804 145.952 26.329C146.866 25.3547 147.687 25.2651 148.869 25.9816C149.906 26.6085 150.52 27.5801 150.929 28.6739C151.3 29.6699 151.442 30.704 151.221 31.7705C150.915 33.2388 150.04 34.2783 148.803 35.0572C148.061 35.524 147.264 35.8795 146.394 36.0261C146.105 36.0749 146.001 36.2215 146.004 36.4847C146.006 36.7779 145.993 37.0737 146.026 37.3614C146.075 37.7929 146.342 37.9883 146.773 38.0182C147.627 38.0779 148.307 37.7332 148.934 37.1931C150.607 35.7547 152.239 34.2647 154.171 33.1601C154.302 33.0841 154.438 33.0136 154.569 32.9376C154.722 32.8507 154.798 32.734 154.801 32.544C154.828 30.5981 155.77 29.271 157.571 28.53C157.964 28.3699 158.351 28.1935 158.75 28.0442C158.973 27.9601 159.061 27.8244 159.006 27.5964C158.619 25.9789 159.197 24.5839 160.076 23.2893C160.349 22.8849 160.529 22.4996 160.562 22.0192C160.583 21.7098 160.649 21.3977 160.834 21.1263C161.083 20.7653 161.429 20.654 161.819 20.844C162.436 21.1426 163.05 21.4492 163.656 21.7749C164.153 22.0409 164.254 22.2743 164.155 22.8252C164.128 22.9854 164.174 23.0939 164.316 23.1753C164.717 23.4142 165.116 23.6611 165.517 23.9027C167.045 24.8309 167.621 26.3127 167.124 28.0307C166.821 29.0783 166.232 29.83 165.083 30.02C164.488 30.1177 163.891 30.0933 163.298 30.0119C162.835 29.9495 162.373 29.8653 161.92 29.7622C161.544 29.6753 161.189 29.6835 160.843 29.8653C159.606 30.5113 158.302 31.0052 157.058 31.6294C156.894 31.7108 156.588 31.8113 156.662 31.985C156.747 32.1776 157.006 31.9768 157.183 31.947C157.664 31.8655 158.133 31.7163 158.63 31.8167C159.568 32.0067 160.13 32.6146 160.444 33.4722C160.802 34.452 160.783 35.4209 160.294 36.3653C159.784 37.3532 158.744 37.7223 157.721 37.2609C156.992 36.9326 156.455 36.3898 156.01 35.7438C155.726 35.3313 155.633 35.3177 155.189 35.5538C153.74 36.3328 152.495 37.3885 151.227 38.4144C150.501 39.0006 149.808 39.6275 149.003 40.1161C147.183 41.2234 145.652 40.3522 144.871 38.8839C144.476 38.1403 144.298 37.3478 144.44 36.4983C144.473 36.2975 144.489 36.0939 144.192 36.0261C143.032 35.7628 142.432 34.9405 142.083 33.8847C141.968 33.5455 141.889 33.1927 141.777 32.7774ZM162.169 25.6749C162.212 25.3058 162.062 24.9829 161.863 24.6789C161.721 24.4618 161.522 24.4401 161.334 24.5948C161.039 24.8363 160.785 25.124 160.627 25.4768C160.433 25.9083 160.532 26.2394 160.894 26.4593C161.353 26.7388 161.65 26.6981 161.989 26.3181C162.158 26.1336 162.188 25.9165 162.169 25.6749ZM164.775 27.2246C164.938 27.2246 165.102 27.2273 165.266 27.2246C165.348 27.2219 165.46 27.2599 165.487 27.1459C165.511 27.0509 165.427 26.9885 165.359 26.9369C164.963 26.6275 164.515 26.3996 164.093 26.1336C163.945 26.0413 163.871 26.1119 163.833 26.253C163.787 26.4321 163.751 26.614 163.691 26.7877C163.601 27.0482 163.672 27.1649 163.959 27.1948C164.234 27.2192 164.505 27.2192 164.775 27.2246Z" fill="#FEFEFE"></path>
              <path d="M153.241 48.6845C154.024 48.5759 154.706 48.4755 155.391 48.3859C156.426 48.2502 157.454 48.0657 158.497 48.0196C159.948 47.9544 161.302 48.6546 161.837 49.8976C162.025 50.3319 162.03 50.7851 162.036 51.2383C162.044 52.2914 161.924 53.3308 161.637 54.3513C161.307 55.5346 160.666 56.5496 159.932 57.5104C159.067 58.6448 157.959 59.4916 156.647 60.0697C154.818 60.873 153.069 60.5853 151.386 59.6599C150.029 58.9135 149.26 57.7085 148.834 56.2592C148.608 55.4857 148.512 54.6905 148.474 53.8926C148.455 53.4747 148.479 53.0459 148.545 52.6306C148.597 52.3104 148.493 52.2805 148.223 52.3185C146.943 52.5031 145.658 52.6388 144.373 52.7745C142.534 52.9699 140.724 52.8667 138.94 52.3782C138.711 52.3158 138.487 52.2262 138.263 52.1394C137.938 52.0118 137.892 52.0281 137.851 52.3782C137.78 52.9943 137.665 53.5995 137.401 54.164C136.997 55.0189 136.285 55.5997 135.567 56.1642C133.676 57.6515 131.575 58.7995 129.416 59.8498C128.914 60.0941 128.35 60.1565 127.812 60.2841C125.924 60.7265 124.049 61.2177 122.144 61.5895C121.929 61.6329 121.711 61.6628 121.495 61.6302C121.233 61.5895 121.006 61.4728 120.936 61.1987C120.859 60.9083 120.993 60.6885 121.238 60.5419C121.836 60.1809 122.488 59.9285 123.127 59.6544C125.405 58.6747 127.722 57.7736 129.946 56.6718C131.654 55.825 133.324 54.9077 134.871 53.7895C135.144 53.5914 135.392 53.3634 135.652 53.149C136.004 52.8559 136.094 52.4841 136.023 52.039C135.859 51.0402 135.409 50.1473 134.997 49.2409C134.838 48.8907 134.759 48.5515 134.868 48.1743C134.945 47.9029 134.997 47.626 135.068 47.3546C135.122 47.1402 135.231 46.953 135.392 46.801C135.698 46.5133 136.006 46.516 136.317 46.7955C136.476 46.9394 136.563 47.1267 136.661 47.3058C137.48 48.7958 138.741 49.5774 140.438 49.7239C142.902 49.9356 145.35 49.7945 147.795 49.4878C148.288 49.4254 148.788 49.382 149.279 49.2843C149.465 49.2463 149.596 49.1784 149.705 49.0292C149.833 48.8555 149.972 48.6872 150.114 48.5244C150.403 48.1905 150.406 48.1471 150.062 47.8486C149.399 47.2678 148.668 46.7765 148.032 46.1605C146.627 44.7926 147.325 43.1018 148.512 42.3392C149.23 41.8778 150.04 41.7041 150.878 41.7041C152.379 41.7041 153.877 41.8289 155.372 41.9538C156.576 42.0542 157.776 42.1411 158.98 42.2442C159.444 42.2849 159.913 42.3147 160.366 42.4342C161.015 42.6051 161.261 43.0231 161.097 43.669C161.051 43.8482 160.993 44.0218 160.942 44.201C160.751 44.8605 160.328 45.292 159.686 45.5553C158.276 46.1333 156.887 46.7575 155.52 47.4333C154.837 47.7699 154.177 48.1498 153.506 48.5135C153.446 48.5461 153.386 48.5895 153.241 48.6845ZM154.829 57.4534C155.495 57.5701 156.169 57.3177 156.838 57.0436C157.211 56.8889 157.563 56.6908 157.899 56.4709C158.911 55.8033 159.809 55.0054 160.363 53.9198C160.764 53.1327 160.715 52.1665 160.027 51.6699C159.716 51.4446 159.381 51.2519 158.993 51.2112C158.117 51.1189 157.236 51.0728 156.355 51.1678C154.409 51.3768 152.477 51.6644 150.545 51.9738C150.3 52.0145 150.209 52.1258 150.215 52.3619C150.226 52.8695 150.209 53.3797 150.256 53.8872C150.425 55.6839 151.383 56.859 153.064 57.3068C153.618 57.4534 154.183 57.4832 154.829 57.4534ZM149.969 44.6298C150.04 44.8062 150.169 44.8578 150.264 44.9392C150.826 45.4006 151.402 45.8429 151.953 46.3152C152.21 46.535 152.431 46.554 152.712 46.3722C153.503 45.8565 154.322 45.387 155.168 44.9609C155.241 44.9229 155.37 44.9175 155.345 44.7736C153.566 44.5782 151.784 44.6406 149.969 44.6298Z" fill="#FEFEFE"></path>
              <path d="M119.515 52.2804C119.397 52.2669 119.299 52.2669 119.204 52.2451C118.953 52.1909 118.762 52.0606 118.696 51.7973C118.631 51.5368 118.77 51.3468 118.958 51.2165C119.351 50.9424 119.793 50.7524 120.232 50.5598C122.863 49.4063 125.553 48.3886 128.116 47.0886C129.881 46.1929 131.6 45.2132 133.178 43.9973C134.045 43.327 134.689 42.5155 135.096 41.5032C135.246 41.1314 135.434 40.7758 135.612 40.4176C135.756 40.1272 135.961 39.8721 136.272 39.7689C136.635 39.6495 136.878 39.3971 137.131 39.1447C137.494 38.7892 137.915 38.5314 138.4 38.3685C139.222 38.0971 139.907 38.3929 140.368 39.0172C141.517 40.5668 141.517 42.4395 140.278 44C139.847 44.5456 139.173 44.6161 138.403 44.2687C137.724 43.962 137.107 43.5549 136.545 43.0691C136.324 42.8765 136.212 42.8982 136.089 43.1614C135.884 43.6038 135.653 44.0326 135.431 44.4696C134.924 45.4765 134.111 46.2119 133.235 46.8823C131.379 48.3017 129.346 49.4389 127.248 50.4566C126.645 50.7497 125.976 50.8257 125.33 50.9777C123.646 51.3767 121.968 51.8109 120.271 52.1529C120.014 52.2044 119.755 52.2397 119.515 52.2804Z" fill="#FEFEFE"></path>
              <path d="M166.172 41.4381C166.199 42.4151 166.221 43.4546 166.262 44.4941C166.328 46.1279 166.325 47.7617 166.453 49.3928C166.459 49.4579 166.469 49.5204 166.48 49.5855C166.663 50.5924 167.228 50.9642 168.238 50.7417C168.579 50.6657 168.672 50.5028 168.557 50.1744C168.434 49.8216 168.202 49.5285 168.036 49.2001C167.727 48.584 167.883 47.5174 168.36 47.0099C168.663 46.687 168.999 46.6788 169.332 46.9909C169.717 47.3519 169.938 47.8268 170.101 48.2991C170.565 49.6398 170.533 50.9778 169.908 52.2778C169.466 53.2005 168.732 53.784 167.716 53.784C166.603 53.7868 165.675 53.3254 165.121 52.2724C164.633 51.3442 164.488 50.3481 164.412 49.3304C164.262 47.2786 164.199 45.2241 164.15 43.1696C164.123 42.0135 164.071 40.8546 164.019 39.6984C163.945 37.9995 163.782 36.3114 163.288 34.6721C163.056 33.9041 163.334 33.2364 163.719 32.6122C163.986 32.178 164.499 32.197 164.808 32.6149C165.015 32.8945 165.154 33.2174 165.25 33.554C165.684 35.0928 165.91 36.6642 165.997 38.2573C166.055 39.2968 166.112 40.3362 166.172 41.4381Z" fill="#FEFEFE"></path>
              <path d="M141.176 10.2373C141.176 9.48555 141.174 8.86947 141.176 8.25068C141.179 7.77302 141.512 7.58304 141.916 7.83001C142.148 7.97114 142.377 8.12313 142.587 8.29411C142.762 8.43523 142.885 8.4488 143.092 8.32396C145.45 6.88283 148.498 8.15841 149.131 10.8371C149.641 12.9975 148.211 15.1849 145.995 15.63C143.78 16.0751 141.586 14.577 141.234 12.3787C141.114 11.6242 141.212 10.8615 141.176 10.2373ZM147.794 10.658C147.791 10.3215 147.638 10.0718 147.332 9.93336C147.013 9.78952 146.708 9.84108 146.457 10.0826C146.072 10.4517 145.703 10.8344 145.319 11.2035C145.1 11.4125 144.915 11.7897 144.658 11.7789C144.437 11.7707 144.23 11.4179 144.02 11.2198C143.654 10.8724 143.174 10.8534 142.852 11.1682C142.527 11.4885 142.538 11.9634 142.896 12.3271C143.283 12.7233 143.679 13.1142 144.077 13.4968C144.443 13.8469 144.882 13.8551 145.24 13.5077C146.017 12.7478 146.787 11.9797 147.556 11.2116C147.706 11.0597 147.796 10.8778 147.794 10.658Z" fill="#FEFEFE"></path>
              <path d="M133.279 21.653C133.454 21.102 133.525 20.6135 133.787 20.1928C133.814 20.1467 133.83 20.0924 133.86 20.049C134.133 19.6419 134.441 19.2565 134.998 19.3108C135.454 19.3542 135.926 19.8862 136.027 20.4181C136.095 20.7736 135.967 21.0912 135.735 21.3436C135.519 21.577 135.257 21.5417 134.995 21.368C134.703 21.1726 134.627 21.2079 134.51 21.5417C134.278 22.1985 134.19 22.8878 134.032 23.5636C133.956 23.8893 133.879 24.2204 133.702 24.5108C133.571 24.7279 133.413 24.9369 133.115 24.8989C132.812 24.8609 132.72 24.6194 132.668 24.367C132.54 23.7373 132.288 23.1484 132.054 22.554C131.964 22.3287 131.841 22.1849 131.571 22.2229C131.426 22.2446 131.279 22.2039 131.162 22.1279C130.908 21.9651 130.769 22.0329 130.616 22.2826C130.026 23.2406 129.153 23.9001 128.217 24.4918C127.158 25.1622 125.985 25.5638 124.814 25.9764C124.678 26.0252 124.539 26.0333 124.397 25.9872C124.13 25.9004 124.039 25.6615 124.19 25.4254C124.291 25.2653 124.443 25.1622 124.607 25.0699C125.955 24.2937 127.273 23.4686 128.572 22.6137C129.415 22.0601 130.149 21.4087 130.638 20.4941C131.096 19.6365 131.645 19.5985 132.365 20.258C132.769 20.6271 132.99 21.1047 133.279 21.653Z" fill="#FEFEFE"></path>
              <path d="M152.351 22.9587C152.043 22.9506 151.828 22.69 151.901 22.3806C152.029 21.8297 152.289 21.3927 152.875 21.1811C155.299 20.3017 157.713 19.4007 160.131 18.5078C160.671 18.3069 161.214 18.1142 161.755 17.9161C162.006 17.8239 162.257 17.8021 162.448 18.0193C162.642 18.2391 162.562 18.4779 162.453 18.7168C162.268 19.1266 161.929 19.3355 161.528 19.4821C158.587 20.5568 155.672 21.7076 152.761 22.861C152.63 22.9072 152.496 22.956 152.351 22.9587Z" fill="#FEFEFE"></path>
              <path d="M154.471 25.8781C154.642 25.3054 154.738 24.8142 154.992 24.38C155.12 24.1628 155.256 23.9566 155.453 23.7965C155.936 23.4002 156.454 23.4545 156.861 23.9376C157.325 24.4885 157.352 25.2104 156.918 25.585C156.689 25.7831 156.454 25.775 156.203 25.6067C155.892 25.3977 155.832 25.4276 155.701 25.7831C155.445 26.4779 155.374 27.2188 155.188 27.9299C155.115 28.2148 155.022 28.4889 154.877 28.7468C154.754 28.9693 154.58 29.1484 154.315 29.1132C154.05 29.0779 153.917 28.8716 153.865 28.6165C153.739 27.9624 153.48 27.3545 153.226 26.7438C153.142 26.5403 153.024 26.4535 152.787 26.4426C152.225 26.4127 151.846 26.0843 151.6 25.6013C151.513 25.4303 151.532 25.2403 151.616 25.0666C151.693 24.9119 151.772 24.7572 151.862 24.6079C152.268 23.9539 152.681 23.8697 153.324 24.3094C153.69 24.5591 153.963 24.8956 154.162 25.2892C154.252 25.4574 154.342 25.6284 154.471 25.8781Z" fill="#FEFEFE"></path>
              <path d="M169.987 41.3157C169.971 41.6305 169.81 41.8558 169.665 42.081C169.51 42.3226 169.553 42.4746 169.78 42.651C170.713 43.3756 170.738 43.5466 170.113 44.548C170.045 44.6593 169.971 44.7652 169.889 44.8683C169.603 45.2347 169.302 45.2862 168.937 45.0121C168.579 44.7462 168.233 44.4666 167.892 44.1816C167.589 43.9292 167.542 43.6551 167.725 43.3159C168.222 42.3904 168.274 42.6455 167.447 41.9697C167.032 41.6305 166.975 41.3944 167.237 40.9357C167.398 40.6535 167.548 40.3631 167.733 40.0998C167.971 39.7633 168.263 39.7117 168.609 39.918C169.021 40.1622 169.392 40.4662 169.739 40.7973C169.892 40.9411 169.966 41.1338 169.987 41.3157Z" fill="#FEFEFE"></path>
              <path d="M148.859 22.5106C148.687 23.0289 148.486 23.588 147.986 23.9734C147.836 24.0901 147.653 24.0738 147.492 23.9734C147.244 23.8187 146.993 23.664 146.756 23.493C146.543 23.341 146.384 23.3383 146.267 23.6016C146.207 23.74 146.122 23.8676 146.005 23.9707C145.809 24.1444 145.596 24.2285 145.356 24.0711C144.911 23.778 144.461 23.493 144.038 23.1701C143.808 22.9936 143.732 22.725 143.869 22.4373C144.024 22.1143 144.174 21.7886 144.351 21.4792C144.586 21.064 144.897 20.9853 145.309 21.2214C145.517 21.3408 145.716 21.4738 145.912 21.6095C146.204 21.8103 146.248 21.7995 146.428 21.4792C146.485 21.3761 146.543 21.2648 146.627 21.1834C146.81 21.0043 147.037 20.9174 147.282 21.045C147.765 21.2947 148.221 21.5932 148.627 21.9569C148.769 22.0817 148.838 22.2636 148.859 22.5106Z" fill="#FEFEFE"></path>
              <path d="M142.93 45.5878C143.001 44.524 143.344 43.3624 143.983 42.2931C144.01 42.2469 144.038 42.1981 144.076 42.1601C144.207 42.0244 144.354 41.8751 144.553 41.9728C144.769 42.0759 144.81 42.2849 144.752 42.502C144.613 43.0258 144.469 43.5469 144.319 44.0653C144.196 44.4887 144.179 44.9175 144.19 45.3517C144.193 45.4494 144.182 45.5607 144.291 45.6041C144.414 45.6557 144.493 45.5716 144.561 45.4793C144.605 45.4169 144.654 45.3572 144.706 45.3029C144.837 45.1645 144.984 45.0288 145.186 45.1156C145.402 45.2079 145.487 45.425 145.451 45.6313C145.358 46.1551 145.203 46.6653 144.843 47.0833C144.37 47.6342 143.617 47.5691 143.213 46.9503C143.036 46.6734 142.93 46.2311 142.93 45.5878Z" fill="#FEFEFE"></path>
              <path d="M168.134 36.5629C168.213 35.6755 167.785 34.9997 167.212 34.3836C167.122 34.2886 167.023 34.2018 166.933 34.1068C166.549 33.7024 166.573 33.2166 166.988 32.8529C167.228 32.6439 167.531 32.6521 167.815 32.8963C168.475 33.4663 168.923 34.1692 169.127 35.0214C169.277 35.6429 169.302 36.259 169.1 36.875C169.067 36.9782 169.035 37.0813 168.985 37.1763C168.874 37.3853 168.726 37.5861 168.456 37.5128C168.172 37.4341 168.11 37.179 168.104 36.9157C168.101 36.799 168.123 36.6823 168.134 36.5629Z" fill="#FEFEFE"></path>
              <path d="M162.17 25.6745C162.189 25.916 162.159 26.1332 161.993 26.3177C161.655 26.6977 161.357 26.7384 160.899 26.4588C160.536 26.239 160.44 25.9079 160.631 25.4764C160.79 25.1236 161.041 24.8359 161.338 24.5943C161.526 24.4396 161.726 24.4614 161.868 24.6785C162.064 24.9824 162.214 25.3027 162.17 25.6745Z" fill="#10C789"></path>
              <path d="M164.777 27.2242C164.507 27.2188 164.234 27.2188 163.964 27.189C163.678 27.1591 163.607 27.0451 163.697 26.7819C163.757 26.6082 163.792 26.4263 163.839 26.2472C163.877 26.1061 163.951 26.0328 164.098 26.1278C164.521 26.3965 164.968 26.6217 165.364 26.9311C165.432 26.9854 165.517 27.0451 165.492 27.1401C165.465 27.2541 165.353 27.2161 165.271 27.2188C165.105 27.2269 164.941 27.2242 164.777 27.2242Z" fill="#10C789"></path>
              <path d="M154.833 57.4532C154.184 57.4831 153.619 57.4532 153.068 57.3067C151.387 56.8588 150.429 55.6837 150.26 53.887C150.211 53.3795 150.23 52.8693 150.219 52.3618C150.214 52.1257 150.304 52.0144 150.549 51.9737C152.481 51.6643 154.413 51.3766 156.359 51.1676C157.24 51.0726 158.119 51.1188 158.997 51.211C159.385 51.2517 159.718 51.4444 160.032 51.6697C160.719 52.1664 160.768 53.1353 160.367 53.9196C159.813 55.0052 158.915 55.8031 157.903 56.4708C157.567 56.6906 157.215 56.8887 156.842 57.0434C156.173 57.3175 155.502 57.5699 154.833 57.4532Z" fill="#10C789"></path>
              <path d="M149.973 44.6295C151.787 44.6404 153.569 44.5807 155.348 44.7761C155.373 44.9199 155.245 44.9253 155.171 44.9633C154.325 45.3894 153.506 45.8589 152.715 46.3746C152.437 46.5564 152.216 46.5374 151.956 46.3176C151.405 45.8454 150.827 45.403 150.267 44.9416C150.169 44.8575 150.041 44.8059 149.973 44.6295Z" fill="#10C789"></path>
              <path d="M147.792 10.659C147.795 10.8789 147.708 11.0607 147.555 11.2127C146.785 11.9807 146.016 12.7488 145.238 13.5087C144.881 13.8588 144.439 13.848 144.076 13.4979C143.675 13.1125 143.282 12.7244 142.894 12.3281C142.54 11.9645 142.526 11.4895 142.851 11.1693C143.173 10.8517 143.65 10.8734 144.019 11.2208C144.231 11.4217 144.439 11.7718 144.657 11.7799C144.914 11.7908 145.099 11.4135 145.317 11.2045C145.702 10.8354 146.071 10.4528 146.455 10.0837C146.709 9.84212 147.015 9.78784 147.331 9.9344C147.634 10.0701 147.79 10.3225 147.792 10.659Z" fill="#10C789"></path>
            </svg>