<svg width="32" height="32" viewBox="0 0 32 32" fill="none" xmlns="http://www.w3.org/2000/svg">
              <path fill-rule="evenodd" clip-rule="evenodd" d="M15.9993 3.84375C9.28688 3.84375 3.84375 9.28688 3.84375 15.9993C3.84375 22.7117 9.28688 28.1549 15.9993 28.1549C22.7131 28.1549 28.1549 22.7118 28.1549 15.9993C28.1549 9.28681 22.7131 3.84375 15.9993 3.84375ZM1.84375 15.9993C1.84375 8.18231 8.18231 1.84375 15.9993 1.84375C23.8178 1.84375 30.1549 8.18238 30.1549 15.9993C30.1549 23.8162 23.8178 30.1549 15.9993 30.1549C8.18231 30.1549 1.84375 23.8163 1.84375 15.9993Z" fill="#5E6C84"></path>
              <path fill-rule="evenodd" clip-rule="evenodd" d="M14.9922 22.8205C14.9922 22.2682 15.4399 21.8205 15.9922 21.8205H16.0064C16.5587 21.8205 17.0064 22.2682 17.0064 22.8205C17.0064 23.3728 16.5587 23.8205 16.0064 23.8205H15.9922C15.4399 23.8205 14.9922 23.3728 14.9922 22.8205Z" fill="#5E6C84"></path>
              <path fill-rule="evenodd" clip-rule="evenodd" d="M13.6561 8.40469C14.7315 7.88772 15.9508 7.75182 17.1136 8.01925L17.1159 8.01978C18.2742 8.28904 19.3079 8.94119 20.0496 9.87075C20.7914 10.8003 21.1978 11.9529 21.2032 13.1421C21.2057 13.6944 20.7601 14.1441 20.2078 14.1467C19.6555 14.1492 19.2057 13.7035 19.2032 13.1513C19.1998 12.4121 18.9473 11.6959 18.4863 11.1182C18.0256 10.5408 17.3836 10.1356 16.6642 9.96811C15.9439 9.80272 15.1887 9.88703 14.5226 10.2072C13.8561 10.5276 13.3184 11.0651 12.9977 11.7315L12.9947 11.7376L12.9947 11.7376C12.7802 12.1757 12.6958 12.6657 12.7507 13.1495C13.0612 14.144 13.674 15.0179 14.5045 15.6489C15.7215 16.5589 16.5784 17.8691 16.9245 19.3488C17.0503 19.8866 16.7163 20.4245 16.1785 20.5503C15.6407 20.676 15.1028 20.342 14.977 19.8043C14.738 18.782 14.1457 17.8771 13.3045 17.2489L13.2984 17.2444L13.2984 17.2443C12.1065 16.34 11.2348 15.0784 10.8106 13.6436C10.7967 13.5966 10.7863 13.5488 10.7794 13.5003C10.6517 12.5986 10.7971 11.6793 11.197 10.8611C11.7146 9.78733 12.5816 8.92118 13.6561 8.40469Z" fill="#5E6C84"></path>
            </svg>