<svg width="24" height="24" viewBox="0 0 24 24" fill="none" class="social-icon" xmlns="http://www.w3.org/2000/svg">
              <path d="M21.8107 6.22724C21.8687 6.14647 21.7831 6.04218 21.6904 6.07811C21.0317 6.33344 20.3432 6.50571 19.641 6.5906C20.4229 6.12348 21.0263 5.4124 21.3609 4.57053C21.395 4.48477 21.3013 4.40819 21.2205 4.4528C20.4938 4.85414 19.71 5.14313 18.8959 5.30957C18.8618 5.31654 18.8267 5.30494 18.8028 5.27969C18.1918 4.63502 17.3876 4.20578 16.5108 4.05745C15.6157 3.90601 14.6955 4.05596 13.8948 4.48379C13.094 4.91162 12.4579 5.59313 12.0862 6.42144C11.7328 7.209 11.6375 8.08691 11.8118 8.93003C11.8253 8.99545 11.7741 9.05721 11.7074 9.05307C10.1234 8.95469 8.57567 8.53336 7.15966 7.81446C5.74725 7.09739 4.49652 6.09983 3.48364 4.8833C3.43869 4.82931 3.35349 4.83629 3.32074 4.89845C3.00557 5.49651 2.84056 6.16311 2.841 6.8406C2.83972 7.51498 3.00522 8.17922 3.32276 8.77416C3.6403 9.36911 4.10002 9.87631 4.661 10.2506C4.06608 10.2344 3.48275 10.0873 2.95225 9.82067C2.88389 9.78631 2.80188 9.83524 2.80543 9.91167C2.8468 10.8009 3.17326 11.6936 3.73832 12.3786C4.33964 13.1074 5.17426 13.6062 6.101 13.7906C5.74426 13.8992 5.37388 13.9564 5.001 13.9606C4.79806 13.9582 4.59552 13.9433 4.39454 13.9158C4.32002 13.9056 4.25917 13.9764 4.28526 14.0469C4.56168 14.7944 5.05 15.4467 5.69208 15.9228C6.37853 16.4318 7.20658 16.7142 8.06101 16.7306C6.61821 17.8659 4.83689 18.4855 3.001 18.4906C2.81236 18.4912 2.6238 18.4851 2.43569 18.4723C2.32968 18.4651 2.28092 18.6063 2.3723 18.6605C4.16107 19.7221 6.20559 20.2831 8.291 20.2806C9.8307 20.2966 11.3581 20.0056 12.7841 19.4247C14.2101 18.8437 15.506 17.9845 16.5962 16.8971C17.6864 15.8097 18.549 14.516 19.1336 13.0915C19.7182 11.667 20.013 10.1403 20.001 8.6006V8.12077C20.001 8.0892 20.0159 8.05951 20.0411 8.04048C20.7194 7.52834 21.3159 6.91691 21.8107 6.22724Z" fill="#091E42"></path>
            </svg>