<svg width="48" height="48" viewBox="0 0 48 48" fill="none" xmlns="http://www.w3.org/2000/svg">
            <path fill-rule="evenodd" clip-rule="evenodd" d="M13 26C17.9699 26 22 30.0301 22 35C22 39.9699 17.9699 44 13 44C8.02908 44 4 39.9699 4 35C4 30.0301 8.02908 26 13 26Z" stroke="#09B188" stroke-width="3" stroke-linecap="round" stroke-linejoin="round"></path>
            <path d="M15.3266 32.8682L10.5938 37.6001" stroke="#09B188" stroke-width="3" stroke-linecap="round" stroke-linejoin="round"></path>
            <path d="M15.3306 37.6051L10.5938 32.8682" stroke="#09B188" stroke-width="3" stroke-linecap="round" stroke-linejoin="round"></path>
            <path d="M43.2622 28.1479H35.1656C32.1927 28.1461 29.7831 25.7382 29.7812 22.7654C29.7812 19.7925 32.1927 17.3846 35.1656 17.3828H43.2622" stroke="#5E6C84" stroke-width="3" stroke-linecap="round" stroke-linejoin="round"></path>
            <path d="M36.0843 22.6458H35.4609" stroke="#5E6C84" stroke-width="3" stroke-linecap="round" stroke-linejoin="round"></path>
            <path fill-rule="evenodd" clip-rule="evenodd" d="M15.4797 6.85938C10.5118 6.85938 6.48437 10.8868 6.48437 15.8547V22C6.48437 22.8284 5.8128 23.5 4.98437 23.5C4.15595 23.5 3.48438 22.8284 3.48438 22V15.8547C3.48438 9.22997 8.85497 3.85938 15.4797 3.85938H32.7665C39.3913 3.85938 44.7619 9.22997 44.7619 15.8547V30.2088C44.7619 36.8335 39.3913 42.2041 32.7665 42.2041H27C26.1716 42.2041 25.5 41.5325 25.5 40.7041C25.5 39.8757 26.1716 39.2041 27 39.2041H32.7665C37.7344 39.2041 41.7619 35.1767 41.7619 30.2088V15.8547C41.7619 10.8868 37.7344 6.85938 32.7665 6.85938H15.4797Z" fill="#5E6C84"></path>
            <path d="M14.0547 14.4348H24.8526" stroke="#5E6C84" stroke-width="3" stroke-linecap="round" stroke-linejoin="round"></path>
          </svg>